<?xml version="1.0" encoding="utf-8"?>
<!-- Generator: Adobe Illustrator 24.2.0, SVG Export Plug-In . SVG Version: 6.00 Build 0)  -->
<svg version="1.1" id="Capa_1" xmlns="http://www.w3.org/2000/svg" xmlns:xlink="http://www.w3.org/1999/xlink" x="0px" y="0px"
	 viewBox="0 0 1200 372" style="enable-background:new 0 0 1200 372;" xml:space="preserve">
<style type="text/css">
	.st0{fill:#FFFFFF;}
	.st1{fill:#CA8ABB;}
</style>
<g id="layer101">
	<path class="st0" d="M403.2,280.3c-7.1-7.6-15.3-16.6-18.3-20s-5.8-6.2-6.2-6.2c-1.3-0.1,0.4,35.3,1.7,36.1
		c0.6,0.4,2.3,0.8,3.8,0.8s3,0.5,3.3,1c0.4,0.6-3,1-9.5,1s-9.9-0.4-9.5-1c0.3-0.5,1.6-1,2.8-1c4.8,0,4.8-0.4,4.5-21.9
		c-0.3-21.6-0.4-22-5.5-22.1c-1.4,0-2.3-0.6-2.3-1.5c0-2.3,10.4-2.1,12.8,0.3c2.9,3.1,29.8,32.5,32.5,35.7l2.6,3l-0.1-8
		c0-4.4-0.3-12.7-0.7-18.5l-0.6-10.5l-3.8-0.5c-6.8-0.9-4.5-2.5,4.1-2.8c5.2-0.2,8.2,0.1,8.2,0.8c0,0.5-0.9,1-1.9,1
		c-1.1,0-2.3,0.6-2.8,1.3c-0.4,0.6-0.6,11.4-0.4,24c0.2,14.8-0.1,22.7-0.7,22.7S410.4,287.8,403.2,280.3z"/>
	<path class="st0" d="M586.6,292.4c-9.6-3.5-14.6-10.5-15.4-21.4c-0.3-5.3,0-7.6,1.7-11.6c2.8-6.4,9.3-12.9,15-14.9
		c5.1-1.8,16.1-1.9,21.1-0.2c3.2,1.1,3.5,1.6,3.8,5.5c0.4,5-0.7,5.4-3.2,1.1c-3.9-6.7-15.4-7.8-22.4-2.2c-5,4.1-8.1,11.8-8.2,20.4
		c0,14.5,6.5,22.9,17.7,22.9c6,0,11.2-2.5,13.8-6.7c2.7-4.3,3.9-4.1,3.1,0.5c-1.2,6.3-1.6,6.9-4.8,7.6
		C603.4,294.5,590.6,293.9,586.6,292.4z"/>
	<path class="st0" d="M636.8,292.6c-5.6-2-8.5-4.2-11.8-8.8c-5.7-7.9-6.5-18.1-1.9-27.2c4.3-8.6,13-13.6,23.9-13.6
		c15.6,0,25.9,10,26,25.3c0,10.7-4.4,18.2-13.5,23C654.4,293.9,642.2,294.6,636.8,292.6z M656,289.8c5.7-2.9,9-9.1,9.7-18.2
		c1.7-20.1-12.2-32.2-27.7-24.3c-8.6,4.3-12.7,18.1-9.2,30.4C632.4,289.9,644.8,295.4,656,289.8z"/>
	<path class="st0" d="M683.6,293c-1.6-0.5-3.2-1.3-3.5-1.9c-0.9-1.4,0-12.1,1-12.1c0.5,0,0.9,0.5,0.9,1.1c0,2.7,3.6,8.3,6.4,10
		c7.1,4.3,16.6,0.5,16.6-6.8c0-5.2-1.4-6.9-9.8-11.8c-13.8-8.1-17.1-13-13.5-20.2c1-2,3-4.6,4.5-5.6c3.7-2.7,12.2-3.4,17.1-1.4
		c3.5,1.5,3.7,1.8,3.7,6.1c0,5.5-1.1,5.9-2.9,1.1c-2.4-6.7-11.1-8.7-16.2-3.6c-5.4,5.5-3.5,8.9,9.3,15.9
		c12.8,7.1,16.1,13.2,11.7,21.9c-3.2,6.1-7.4,8.3-15.9,8.2C689.4,293.9,685.2,293.4,683.6,293z"/>
	<path class="st0" d="M760.2,292.2c-9.4-3.8-15.6-13.1-15.5-23.7c0-7,1.8-11.7,6.3-16.9c5.6-6.3,10.1-8.1,20.5-8.1
		c7.8,0,9.6,0.3,13.5,2.5c19,10.7,16.5,39.3-4.1,46.5C775.4,294.5,765.5,294.3,760.2,292.2z M779.3,290.6c4.3-1.8,8.4-6.7,9.8-11.9
		c1.6-6,0.7-19.4-1.5-24c-4.7-9.6-19.5-12.8-27.6-6c-6.6,5.5-9.7,18-7,27.8c1.7,6,6.3,12.3,10.3,14
		C767.4,292.3,775.2,292.4,779.3,290.6z"/>
	<path class="st0" d="M845.5,290.4c-0.8-2-1.5-3.8-1.5-4c0-0.9-16.3-37-17.2-38.1c-0.5-0.6-2.2-1.3-3.6-1.5
		c-1.5-0.2-2.6-0.7-2.5-1.3c0.4-1.4,22.3-1.9,22.3-0.5c0,0.5-1.1,1-2.4,1c-3.5,0-5.6,1-5.6,2.6c0,0.8,2.4,6.9,5.4,13.7
		c2.9,6.7,6.1,14.4,7.1,17s2.1,4.4,2.5,4c1.1-1.3,6.5-14.9,10-25.2c3-9,3.1-9.6,1.4-10.8c-1-0.7-2.8-1.3-4.1-1.3s-2.3-0.4-2.3-1
		s7.8-1,21.5-1s21.5,0.4,21.5,1s-1.3,1-2.8,1c-5,0-5.2,0.8-5.2,22.7c0,19,0.1,20.3,1.9,21.3c1.1,0.5,2.9,1,4,1c1.2,0,2.1,0.5,2.1,1
		c0,0.6-4.5,1-11.5,1c-11.4,0-15.1-1.2-7.5-2.4c3.8-0.6,4-0.8,4.1-4.4c0.2-4.6-0.2-38.6-0.5-38.9c-1-1.2-8.9-1.8-11.7-0.9
		c-3.2,1-3.7,1.9-8.7,14.1c-3,7.2-7.1,17.5-9.2,23c-2.1,5.5-4.3,10.1-4.9,10.3C847.5,294,846.4,292.5,845.5,290.4z"/>
	<path class="st0" d="M1059.2,292.7c-4.6-1.4-12.1-8.4-14.3-13.2c-2.1-4.6-2.4-12.9-0.7-18.7c1.5-5,7.9-12.3,13.2-15
		c5.7-2.9,19.2-3.6,26.9-1.4l5.7,1.7v4.9c0,2.8-0.2,5-0.4,5c-0.2,0-1.5-1.7-2.9-3.8c-4.1-6.3-11.1-8.5-20.8-6.5
		c-4.5,0.9-12.1,8.6-13.7,13.9c-3.4,11.6,0.2,23.1,9.3,29.2c4.7,3.2,5.5,3.4,11.7,3c8.4-0.5,10-1.8,10.6-9.1
		c0.6-7.1-0.8-9.7-5.3-9.7c-1.8,0-3.7-0.4-4-1c-0.4-0.6,3.7-1,11.7-0.9c6.8,0.1,10.7,0.4,8.8,0.8l-3.5,0.6l-0.5,7.6
		c-0.3,4.3-1.2,8.4-1.9,9.3C1085.8,293.3,1067.5,295.4,1059.2,292.7z"/>
	<path class="st0" d="M1157.2,292.5c-3.2-1.4-3.3-1.6-3-7c0.3-6,1.8-7.3,3.1-2.6c1.1,4.6,7,9.1,11.8,9.1c2.2,0,4.9-0.5,6-1
		c2.2-1.2,4.9-6,4.9-8.9c0-3.2-4.3-7.4-12-11.6c-9.3-5.1-13-9.2-13-14.6c0-7.7,6.2-12.9,15.4-12.9c8.8,0,11.9,2.7,10.7,9.5l-0.7,4
		l-1.3-3.7c-1.6-4.9-5.4-7.8-10.1-7.8c-5.2,0-9,3.2-9,7.5c0,4.3,1.6,5.8,12.5,11.9c10.4,5.8,12.8,8.9,12.2,15.9
		c-0.8,9.1-6.7,13.7-17.7,13.7C1163.4,293.9,1159,293.3,1157.2,292.5z"/>
	<path class="st0" d="M259.3,292.4c0.3-0.4,2.1-0.9,3.8-1.3c4.5-0.9,5-3.4,4.7-25.2l-0.3-18.2l-3.2-1.1c-6.7-2.3-4.2-2.8,13.7-2.4
		l18.5,0.3l5.5,3.1c13.9,7.8,16.8,26.1,5.8,38c-5.9,6.4-10.2,7.4-31.6,7.4C266.5,293,258.9,292.7,259.3,292.4z M297.2,287.4
		c6.1-4.2,9-10,9.1-17.8c0.1-10.1-4.6-17.5-13.5-21.3c-4.4-1.9-14.2-2.7-16.8-1.3l-2.3,1.2l0.6,19.7c0.6,18.8,0.7,19.7,2.9,21.4
		c1.8,1.5,3.6,1.8,9,1.5C291.7,290.5,293.7,289.9,297.2,287.4z"/>
	<path class="st0" d="M314,292c0-0.5,1.3-1,3-1c4.5,0,4,0.9,18-37.3c3.2-8.8,4.7-11.7,5.8-11.5c1.7,0.3,3.3,4.1,12.4,29.7
		c5.9,16.5,6.4,17.4,9.5,18.7c1.8,0.8,3.3,1.6,3.3,1.9s-4.5,0.5-10,0.5c-6,0-10-0.4-10-1c0-0.5,1.3-1,2.9-1c1.7,0,3.2-0.4,3.5-0.9
		c0.3-0.4-0.8-4.9-2.5-10l-3.1-9.1H339h-7.9l-3,9.2c-1.6,5.1-2.7,9.6-2.5,10c0.3,0.5,2.1,0.8,4,0.8s3.4,0.5,3.4,1c0,0.6-3.8,1-9.5,1
		S314,292.6,314,292z M343.6,262.8c-5-13.2-4.6-12.5-5.7-10.5c-0.9,1.6-5.9,15.5-5.9,16.4c0,0.2,3.1,0.3,7,0.3h7L343.6,262.8z"/>
	<path class="st0" d="M427.6,292.1c-0.3-0.5,1.3-1.1,3.5-1.4s4.2-0.7,4.4-0.9c0.7-0.6,1-12,0.7-27.5L436,247l-4-0.6
		c-8.1-1.3-4.8-2.4,6.9-2.4c7.4,0,12.1,0.4,12.1,1s-1.1,1-2.4,1c-5.7,0-5.6-0.5-5.6,21.9c0,22.3,0.2,23.1,5.2,23.1
		c1.5,0,2.8,0.5,2.8,1C451,293.2,428.3,293.4,427.6,292.1z"/>
	<path class="st0" d="M455,292.1c0-0.6,1.7-1.1,3.8-1.3l3.7-0.3l0.3-20c0.1-11,0-21-0.3-22.2c-0.4-1.7-1.3-2.3-3.5-2.3
		c-1.6,0-3.2-0.4-3.5-1c-0.4-0.7,6.7-1,20.4-1H497v5.5c0,3-0.3,5.5-0.8,5.5c-0.4,0-1.6-1.9-2.7-4.2l-2-4.3l-9.2-0.3
		c-13.2-0.4-13.4-0.2-13.1,11.1l0.3,9.2h9.5h9.5l1-3.2c1.9-5.8,2.5-4.7,2.5,4.7s-0.6,10.5-2.5,4.7l-1-3.2l-9.7-0.3l-9.8-0.3v9.1
		c0,13,0,13,11.8,13c11.4,0,13.8-1,17-6.8c2.3-4.2,4.8-5.8,3.8-2.4c-0.3,0.9-0.8,3.8-1.2,6.5l-0.6,4.7h-22.4
		C464.1,293,455,292.6,455,292.1z"/>
	<path class="st0" d="M504.4,292.1c0.4-0.5,2.4-1.2,4.6-1.6l4-0.7v-21.4V247l-4-0.6c-7.7-1.3-3.9-2.4,8-2.4c6.8,0,12,0.4,12,0.9
		c0,0.6-1.9,1.1-4.2,1.3l-4.3,0.3l-0.3,22.3L520,291h8.2c9.6,0,13.1-1.6,16.7-7.4c1.3-2,2.5-3.6,2.8-3.6s0.2,2.1-0.1,4.8
		c-1.3,9,0.8,8.2-22.7,8.2C512.5,293,504.1,292.6,504.4,292.1z"/>
	<path class="st0" d="M715,292c0-0.5,1-1,2.3-1c1.2,0,3.2-0.3,4.5-0.6c2.2-0.6,2.2-0.7,2.2-22V247l-4-0.6c-8.1-1.3-4.8-2.4,6.9-2.4
		c7.4,0,12.1,0.4,12.1,1s-1.1,1-2.4,1c-5.7,0-5.6-0.5-5.6,21.9c0,22.3,0.2,23.1,5.2,23.1c1.5,0,2.8,0.5,2.8,1c0,0.6-4.7,1-12,1
		S715,292.6,715,292z"/>
	<path class="st0" d="M901,292.1c0-0.5,1.8-1.2,3.9-1.6c3.9-0.6,4-0.7,4.6-5.8c0.3-2.9,0.5-12.4,0.3-21.2l-0.3-16l-3.7-0.9
		c-6.8-1.7-4-2.6,7.7-2.6c7,0,11.5,0.4,11.5,1s-1.8,1-3.9,1c-2.6,0-4.1,0.5-4.5,1.6c-0.3,0.9-0.6,11-0.6,22.6v21l9.6-0.4
		c9.5-0.3,9.6-0.3,12.7-3.9c1.8-1.9,3.7-4.4,4.3-5.5c1.9-3.1,2.2-1.3,1.1,5.4l-1.1,6.2h-20.8C909.9,293,901,292.6,901,292.1z"/>
	<path class="st0" d="M945,292.1c0-0.5,1.8-1.1,3.9-1.5c3.9-0.6,4-0.7,4.6-5.9c0.3-2.8,0.5-12.4,0.3-21.2l-0.3-16l-3.7-0.9
		c-6.9-1.7-4-2.6,8.3-2.6c7.7,0,11.8,0.4,11.4,1c-0.3,0.6-2.4,1-4.6,1H961v22.5V291h8.6h8.7l4.2-4.2c2.3-2.4,4.4-5,4.7-5.8
		c1.2-3.4,1.5-0.1,0.5,5.8l-1,6.2h-20.8C954.4,293,945,292.6,945,292.1z"/>
	<path class="st0" d="M990.6,292.1c0.5-0.5,2.3-1.1,3.9-1.3l3-0.3v-22v-22l-3-0.3c-1.6-0.2-3.4-0.8-3.9-1.3
		c-0.6-0.5,7.2-0.9,20.2-0.9h21.2v5.8c-0.1,6.1-0.4,6.1-4.2-0.7l-1.7-3.1h-9c-4.9,0-9.6,0.3-10.5,0.6c-1.3,0.5-1.6,2.4-1.6,10.5v9.9
		h8.4c9.9,0,11.6-0.5,11.6-3.4c0-1.9,1.8-5.8,2.1-4.6c0.1,0.3,0.3,4.4,0.4,9.3c0.2,8.6-0.6,11.3-2,6c-1.2-4.9-2.1-5.3-11.7-5.3h-8.9
		l0.3,10.8l0.3,10.7l9,0.3c12.5,0.4,16-0.7,18.7-6.4c1.2-2.4,2.6-4.4,3-4.4c0.8,0,0.2,8.7-0.7,11.8c-0.3,0.9-5.9,1.2-23.2,1.2
		C998.4,293,990,292.6,990.6,292.1z"/>
	<path class="st0" d="M1098.5,292c0.3-0.5,1.9-1,3.4-1c1.6,0,3.4-0.7,4.1-1.4c0.6-0.8,4.9-11.8,9.5-24.3
		c6.6-18.3,8.6-22.8,10.1-22.8c1.7,0,6.2,11.2,16.7,41.4c1.5,4.3,2.5,5.5,5.3,6.7c1.9,0.8,3.4,1.6,3.4,1.9s-4.7,0.5-10.5,0.5
		c-6.3,0-10.5-0.4-10.5-1c0-0.5,1.5-1,3.4-1s3.7-0.4,4-0.8c0.2-0.4-0.9-4.9-2.7-10l-3.1-9.2h-7.7h-7.6l-3.2,9
		c-1.7,4.9-3.1,9.4-3.1,10c0,0.5,1.5,1,3.4,1s3.8,0.5,4.1,1c0.4,0.6-3,1-9.5,1S1098.1,292.6,1098.5,292z M1129.5,266.3
		c-0.3-1.5-1.8-5.8-3.3-9.5l-2.7-6.9l-3.2,8.3c-1.8,4.6-3.2,8.9-3.3,9.6c0,0.8,2,1.2,6.6,1.2h6.6L1129.5,266.3z"/>
	<path class="st0" d="M722.6,237.8c2.7-4.9,7.8-9.9,9.7-9.6c3.7,0.6,2.9,2.6-2.9,6.7C723.6,239.1,721.3,240,722.6,237.8z"/>
	<path class="st0" d="M218,189c0-2,0.7-2,490-2s490,0,490,2s-0.7,2-490,2S218,191,218,189z"/>
	<path class="st0" d="M1039.4,159c-8-1.1-20.7-6.2-26.6-10.5c-5.8-4.3-11-11.2-14-18.5c-1.8-4.5-2.2-7.5-2.3-17.1
		c0-11.4,0-11.6,3.9-19.3c7-14.2,20-24.6,35.2-28.2c8.9-2,31.3-1.5,39.1,1c7.5,2.4,8.3,3.5,8.3,11.7c0,8.4-1.5,9.1-5.5,2.4
		c-9.4-16.1-34.8-18.1-51.2-4.1c-9,7.8-14.3,21.4-14.3,37c0.1,26.6,12.4,41.4,35.2,42.4c12.4,0.6,20.7-2.1,28-8.7
		c2.9-2.7,6-6.1,6.7-7.5c0.8-1.4,2.1-2.6,2.8-2.6c1.7,0,1.2,3.1-2.1,13l-2.1,6.5l-5.5,1.2C1067.8,159.4,1047.1,160.1,1039.4,159z"/>
	<path class="st0" d="M709.9,158c-28-4.5-46.3-27.1-42.8-52.9c1.7-11.7,10.9-25.5,21.4-31.6c9.1-5.4,18.1-7.7,31.5-8.2
		c14.6-0.6,21.3,0.7,32.6,6.2c8.6,4.2,17.4,13.1,21.3,21.5c2.4,5,2.6,6.6,2.6,18.5c0,12-0.2,13.4-2.7,18.8
		c-3,6.3-10.6,14.5-18.3,19.5C744.9,156.8,724.8,160.4,709.9,158z M736.8,153.2c6.9-2.2,14.1-6.9,17.6-11.5
		c3.3-4.4,7.3-16.7,8.1-25.3c0.9-8.6-1.4-21.3-5-28.4c-3.2-6.4-12.2-14.3-19.3-17.1c-8.3-3.3-24.2-3.3-32.6,0
		c-17.2,6.8-27.4,28.7-23.1,49.5c3.4,16.3,12,27.5,25.2,32.6C714.3,155.6,728.7,155.7,736.8,153.2z"/>
	<path class="st0" d="M809.4,157.8c-0.7-1,0.6-1.6,8.2-3.3c3.8-0.8,7.6-2,8.4-2.5c1.2-0.8,1.6-4.7,1.8-23.2
		c0.2-12.3,0.1-29.6-0.3-38.5L826.8,74H816c-6,0-12,0.4-13.3,0.9c-2.6,1-8.2,6.4-12.4,11.9c-2.4,3.1-7,4.6-6.1,2
		c0.3-0.7,2-6.8,3.8-13.5c3.6-13.5,4.5-14.4,8.9-9.3l2.6,3l37.5,0.1c26.4,0.1,37.5-0.2,37.8-1c0.9-2.7,4-5.4,5.5-4.8
		c1.4,0.5,1.7,2.2,1.7,10.5c0,5.5-0.3,11.4-0.6,13.1c-0.9,4.4-3.4,3.6-4.9-1.4c-3-10.3-5.5-11.5-22.8-11.5h-12.4l0.5,38.3
		c0.2,21,0.8,38.7,1.3,39.3s4.5,1.9,8.9,2.8c4.7,1.1,8,2.3,8,3c0,0.9-6,1.2-25.1,1.2C821.1,158.6,809.6,158.2,809.4,157.8z"/>
	<path class="st0" d="M262.2,157.2c-4-0.6-1.8-2.6,4.4-4c3.2-0.7,6.6-2,7.4-2.8c1.3-1.3,1.5-6.9,1.2-40.1
		c-0.1-21.3-0.4-38.8-0.7-39.1c-0.2-0.2-3.9-0.7-8.2-1.1c-6.3-0.5-7.8-0.9-8.1-2.3c-0.3-1.4,0.4-1.8,3-1.8c1.8-0.1,11.7-0.5,22-0.9
		c34.5-1.7,46.6,0.9,53.6,11.4c3,4.4,3.3,5.6,3,10.1c-0.5,6.2-2.6,9.2-10,14l-5.7,3.7l5.6,2.3c11.5,4.7,17.5,12.2,17.6,22.2
		c0.1,12.9-11.7,24.2-28.4,27.2C313.7,156.9,267,157.9,262.2,157.2z M316.6,151.5c19.1-5.7,22.3-29.8,5-38.7
		c-4.9-2.5-19.4-4.3-26.8-3.4l-5.8,0.7l0.1,13.7c0.1,14.9,1,23.7,2.6,25.3C295.4,152.8,308.1,154,316.6,151.5z M305.4,105
		c8.5-1.3,13.7-4.1,17.3-9.4c3.6-5.3,4-14.8,0.7-19.3c-4.4-6.1-17.9-9.7-29.8-7.9l-4.6,0.7V87v17.9l2.8,0.4
		C296.6,106,298.4,106,305.4,105z"/>
	<path class="st0" d="M417.2,157.2c-4.1-0.6-1.7-2.6,4.9-4c3.5-0.7,7-2.1,7.7-3c1.7-2.2,1.8-77.7,0-78.8c-0.6-0.4-4.4-0.9-8.5-1.2
		c-7.1-0.5-9.5-1.4-7.7-3.2c1.4-1.4,43.7-2.9,53.9-2c5.6,0.5,11.1,1.6,14.3,3c9.3,4,15.1,13.1,13.5,21.1c-0.8,4-7.2,10.7-12.8,13.3
		l-4,1.9l5.7,1.9c3.3,1.1,7.6,3.6,10.4,6.1c17.5,15.4,6.1,39.3-20.9,43.6C467.9,156.9,422.2,157.9,417.2,157.2z M471.9,151.4
		c7.5-2.2,13.7-8.1,15.7-15c1.4-4.9,1.4-5.9-0.1-11.1c-2.9-9.9-9.9-14.4-25-15.9c-3.5-0.4-8.8-0.3-11.9,0l-5.6,0.7v17.8
		c0,16.5,0.2,18,2.1,20.5c1.1,1.4,3.5,3,5.2,3.5C457.3,153.4,466.2,153.1,471.9,151.4z M466.5,103.9c6-1.6,10.4-5.5,13.2-11.6
		c1.9-4.2,2.3-6.3,1.8-9.1c-1.5-8-5-11.4-13.9-13.8c-5.4-1.5-15.3-1.8-20.5-0.8l-3.1,0.7v12.6c0,6.9,0.3,14.9,0.6,17.8
		c0.6,4.6,1,5.2,3.3,5.6C451.4,106,461.5,105.1,466.5,103.9z"/>
	<path class="st0" d="M511.3,156.5c0.2-0.5,3.9-1.6,8.3-2.3c4.3-0.7,8.4-1.8,8.9-2.3c0.6-0.6,1.1-15.8,1.3-40.4
		c0.3-37.1,0.2-39.4-1.5-39.9c-1.6-0.4-13.1-2.6-14-2.6c-0.2,0-0.3-0.7-0.3-1.5c0-1.3,3.4-1.5,24.5-1.5c20.2,0,24.3,0.2,23.9,1.4
		c-0.3,0.9-3.1,1.5-8.4,1.9c-4.3,0.3-8.3,0.8-8.9,1.2c-0.8,0.4-1.1,13.9-1.1,42.2v41.5l18.8-0.4l18.7-0.3l4.8-3.3
		c4.9-3.4,12.1-11.7,13.2-15.2c0.6-1.9,3.5-2.9,3.5-1.2c0,0.4-0.9,4.8-2,9.8c-1.1,4.9-2,10-2,11.4v2.6h-44
		C525.1,157.6,511.1,157.2,511.3,156.5z"/>
	<path class="st0" d="M887.6,157.1c-1.2-1.9,0-2.4,7.5-3.2c3.9-0.5,7.4-1.1,7.8-1.4c0.3-0.4,0.5-18.8,0.3-40.8
		c-0.3-45.4,0.2-42.7-8.3-42.7c-5.4,0-8.1-0.8-7.3-2.1c0.5-0.9,85.6-1.3,86.5-0.5c0.7,0.7-0.2,20.6-1,20.6c-0.4,0-2-2.7-3.6-5.9
		c-1.5-3.3-3.8-7.2-5-8.8l-2.3-2.8l-21.8,0.2c-16.2,0.2-22,0.6-22.6,1.5c-0.4,0.7-0.8,9.3-0.8,19.1V108l5.3,0.1
		c10.2,0.3,32.2-0.2,33.9-0.7c1-0.3,2.1-1.7,2.4-3.2c2-8.7,2.6-10.3,4-10c1.2,0.2,1.5,3.3,1.7,17.1c0.2,11.3-0.1,16.6-0.8,16.4
		c-0.5-0.2-2.3-3.5-3.8-7.2c-1.5-3.8-3.3-7.3-4-7.7s-9.6-0.8-19.9-0.8H917v19.4c0,16.4,0.3,19.7,1.6,21s4.6,1.6,20.4,1.6
		c10.4,0,21.2-0.5,24.1-1.1c6.3-1.4,10.6-5.1,15.2-13.4c1.8-3.3,4.1-6.1,5.1-6.3c1.6-0.3,1.8,0,1.2,1.9c-0.7,2.2-2.1,10.8-3.2,18.7
		l-0.5,3.2h-16.3c-8.9,0-29.8,0.3-46.3,0.7C895.1,158.2,888.1,158,887.6,157.1z"/>
	<path class="st0" d="M1169.7,157.3c-10.4-0.3-13.7-0.7-13.4-1.6c0.2-0.7,3.3-1.5,7.6-1.9c4-0.3,7.5-0.9,7.9-1.2
		c0.7-0.7-4-14.7-9.4-28.1l-3.2-8l-16.5-0.3l-16.5-0.2l-2,5.2c-1,2.9-3.8,10.6-6.2,17c-2.3,6.4-4,12.3-3.7,13.1
		c0.4,1.1,2.9,1.7,8.1,2.2c5.5,0.5,7.6,1.1,7.6,2.1c0,1.1-3.6,1.4-20,1.4c-16.2,0-20-0.3-20-1.4c0-0.9,1.9-1.5,6.5-1.8
		c3.6-0.3,7.2-1.2,8.1-1.9c2.7-2.2,8-13.8,21-46.1c7-17.2,13.8-34.2,15.3-37.8c2-4.9,3.2-6.6,4.8-6.8c3.6-0.5,3-1.8,24.2,51.3
		c6.1,15.4,12.4,30.4,13.9,33.4c2.6,5.3,2.9,5.5,8.7,7c4.1,1.1,6.1,2.1,6.3,3.4c0.3,1.5-0.5,1.7-7.5,1.5
		C1187,157.7,1177.3,157.4,1169.7,157.3z M1156.5,111.9c0.5-0.6-12.7-33.5-14-34.7c-0.3-0.3-0.6-0.3-0.8-0.1
		c-1.5,1.8-13.7,32.2-13.7,34c0,0.4,1.9,1,4.3,1.2C1138,112.9,1155.8,112.6,1156.5,111.9z"/>
	<path class="st0" d="M358.2,155.8c0.3-0.8,3.3-1.6,7.2-2.1c9.6-1,10.2-1.5,11-8.9c0.9-8.3-0.2-72-1.2-73c-0.4-0.4-3-1-5.7-1.3
		c-9.9-1.2-11.5-1.6-11.5-3c0-1.3,3.7-1.5,24.6-1.5c19,0,24.5,0.3,24.2,1.2c-0.3,0.7-3.8,1.8-7.8,2.5s-7.7,1.8-8.2,2.5
		c-0.4,0.7-0.8,18.5-0.8,39.5c0,43-0.4,40.7,7.8,41.8c2.6,0.3,5.3,0.7,6.1,0.8c0.8,0.1,1.6,0.8,1.9,1.5c0.3,0.9-4.9,1.2-23.8,1.2
		S357.9,156.7,358.2,155.8z"/>
	<path class="st0" d="M606.2,155.8c0.3-0.8,3.3-1.6,7.2-2.1c9.6-1,10.2-1.5,11-8.9c0.9-8.1-0.2-72-1.2-73c-0.4-0.4-3-1-5.7-1.3
		c-9.9-1.2-11.5-1.6-11.5-3c0-1.3,3.7-1.5,24.6-1.5c19.2,0,24.5,0.3,24.2,1.3c-0.3,0.6-3.7,1.7-7.7,2.3c-4.1,0.6-7.7,1.7-8.2,2.5
		s-0.9,18.6-0.9,39.6c0,43-0.4,40.7,7.8,41.8c2.6,0.3,5.3,0.7,6.1,0.8s1.6,0.8,1.9,1.5c0.3,0.9-4.9,1.2-23.8,1.2
		S605.9,156.7,606.2,155.8z"/>
</g>
<g id="layer102">
	<path class="st1" d="M0,186V0h89h89v8v8H97H16v170v170h81h81v8v8H89H0V186z"/>
	<path class="st1" d="M31,267.5V194h73.5H178v73.5V341h-73.5H31V267.5z M76,314.7c0-0.8-1.8-1.9-4.1-2.6c-3.4-1-4.4-2-6-5.5
		c-1.8-4.1-1.8-5.7-0.8-31.7c0.6-15.1,1.3-27.6,1.5-27.8c1-1,2.9,2.7,17.4,33.4c8.3,17.6,15.5,32.4,15.9,32.8s1.2,0.2,1.8-0.5
		c0.5-0.7,8.1-16.1,16.9-34.2c14.5-30,17.3-35,19.1-33.3c1,1.1,2.2,60.8,1.2,63.4c-0.5,1.3-2.4,3-4.4,3.9c-6.4,2.6-4,3.4,11,3.4
		c11.5,0,14.5-0.3,14.5-1.3c0-0.8-1.8-1.9-4-2.6c-2.2-0.6-4.5-2.1-5.1-3.3c-1.1-2.1-2.8-40.3-2.9-66.4c0-12.7,0.2-14.4,2-16.7
		c1.1-1.4,3.4-2.8,5-3.2c1.7-0.4,3-1.2,3-2c0-0.9-2-1.3-7.6-1.3h-7.7l-19.1,38.9C113.1,279.5,104,297,103.4,297
		c-0.9,0-30.7-62.9-35.2-74.1l-1.4-3.7h-8.9c-4.9,0-9.2,0.4-9.4,0.8c-0.3,0.5,1.2,1.7,3.2,2.7c2.7,1.3,4.5,3.2,6.3,6.8
		c2.2,4.4,2.5,6.5,2.9,18.4c0.4,15.8-2.5,55.2-4.4,59.8c-0.9,2.1-2.6,3.7-4.9,4.7c-6.7,2.8-4.3,3.6,10.4,3.6
		C73,316,76,315.7,76,314.7z"/>
	<path class="st1" d="M31,104.5V31h73.5H178v73.5V178h-73.5H31V104.5z M127.8,155.5c7-1.7,16.4-5.8,18.2-7.9
		c1.5-2,4.9-16.5,3.9-17.1c-0.4-0.3-2.4,2-4.5,5c-11.1,16.8-38,23.3-56.8,13.8c-9.9-5-18.5-16.8-22.2-30.3c-2.2-8-2.4-25.3-0.5-33
		C69,73.5,76.4,63.7,86.6,58.7c10.5-5.2,24.6-5.8,36.2-1.5c7,2.6,17,12.3,22.2,21.5c1.9,3.4,3.8,6.3,4.3,6.3c0.9,0,1-16.5,0.1-20.9
		c-0.6-2.8-1-3.2-3.1-2.6c-1.6,0.4-4.3-0.5-8.6-2.9c-10.2-5.7-18.6-7.8-31.2-7.8c-13-0.1-20.7,2-30.1,8
		c-19.9,12.9-29.1,39.6-22.1,63.8c5.1,17.5,18.2,29.9,36.1,34C98,158.3,118.7,157.7,127.8,155.5z"/>
</g>
</svg>
