<?xml version="1.0" encoding="utf-8"?>
<!-- Generator: Adobe Illustrator 24.2.0, SVG Export Plug-In . SVG Version: 6.00 Build 0)  -->
<svg version="1.1" id="Capa_1" xmlns="http://www.w3.org/2000/svg" xmlns:xlink="http://www.w3.org/1999/xlink" x="0px" y="0px"
	 viewBox="0 0 180 372" style="enable-background:new 0 0 180 372;" xml:space="preserve">
<style type="text/css">
	.st0{fill:#CA8ABB;}
</style>
<g id="layer102">
	<path class="st0" d="M0,186V0h89h89v8v8H97H16v170v170h81h81v8v8H89H0V186z"/>
	<path class="st0" d="M31,267.5V194h73.5H178v73.5V341h-73.5H31V267.5z M76,314.7c0-0.8-1.8-1.9-4.1-2.6c-3.4-1-4.4-2-6-5.5
		c-1.8-4.1-1.8-5.7-0.8-31.7c0.6-15.1,1.3-27.6,1.5-27.8c1-1,2.9,2.7,17.4,33.4c8.3,17.6,15.5,32.4,15.9,32.8s1.2,0.2,1.8-0.5
		c0.5-0.7,8.1-16.1,16.9-34.2c14.5-30,17.3-35,19.1-33.3c1,1.1,2.2,60.8,1.2,63.4c-0.5,1.3-2.4,3-4.4,3.9c-6.4,2.6-4,3.4,11,3.4
		c11.5,0,14.5-0.3,14.5-1.3c0-0.8-1.8-1.9-4-2.6c-2.2-0.6-4.5-2.1-5.1-3.3c-1.1-2.1-2.8-40.3-2.9-66.4c0-12.7,0.2-14.4,2-16.7
		c1.1-1.4,3.4-2.8,5-3.2c1.7-0.4,3-1.2,3-2c0-0.9-2-1.3-7.6-1.3h-7.7l-19.1,38.9C113.1,279.5,104,297,103.4,297
		c-0.9,0-30.7-62.9-35.2-74.1l-1.4-3.7h-8.9c-4.9,0-9.2,0.4-9.4,0.8c-0.3,0.5,1.2,1.7,3.2,2.7c2.7,1.3,4.5,3.2,6.3,6.8
		c2.2,4.4,2.5,6.5,2.9,18.4c0.4,15.8-2.5,55.2-4.4,59.8c-0.9,2.1-2.6,3.7-4.9,4.7c-6.7,2.8-4.3,3.6,10.4,3.6
		C73,316,76,315.7,76,314.7z"/>
	<path class="st0" d="M31,104.5V31h73.5H178v73.5V178h-73.5H31V104.5z M127.8,155.5c7-1.7,16.4-5.8,18.2-7.9
		c1.5-2,4.9-16.5,3.9-17.1c-0.4-0.3-2.4,2-4.5,5c-11.1,16.8-38,23.3-56.8,13.8c-9.9-5-18.5-16.8-22.2-30.3c-2.2-8-2.4-25.3-0.5-33
		C69,73.5,76.4,63.7,86.6,58.7c10.5-5.2,24.6-5.8,36.2-1.5c7,2.6,17,12.3,22.2,21.5c1.9,3.4,3.8,6.3,4.3,6.3c0.9,0,1-16.5,0.1-20.9
		c-0.6-2.8-1-3.2-3.1-2.6c-1.6,0.4-4.3-0.5-8.6-2.9c-10.2-5.7-18.6-7.8-31.2-7.8c-13-0.1-20.7,2-30.1,8
		c-19.9,12.9-29.1,39.6-22.1,63.8c5.1,17.5,18.2,29.9,36.1,34C98,158.3,118.7,157.7,127.8,155.5z"/>
</g>
</svg>
