<?xml version="1.0" encoding="utf-8"?>
<!-- Generator: Adobe Illustrator 24.2.0, SVG Export Plug-In . SVG Version: 6.00 Build 0)  -->
<svg version="1.1" id="Capa_1" xmlns="http://www.w3.org/2000/svg" xmlns:xlink="http://www.w3.org/1999/xlink" x="0px" y="0px"
	 viewBox="0 0 500 500" style="enable-background:new 0 0 500 500;" xml:space="preserve">
<style type="text/css">
	.st0{fill:#E6E6E6;}
	.st1{fill:#F0F0F0;}
	.st2{fill:#FFFFFF;}
	.st3{fill:#E0E0E0;}
	.st4{fill:#F5F5F5;}
	.st5{fill:#FAFAFA;}
	.st6{display:none;}
	.st7{display:inline;}
	.st8{fill:#407BFF;}
	.st9{opacity:0.9;fill:#FFFFFF;enable-background:new    ;}
	.st10{fill:#331A2E;}
	.st11{fill:#F4E1F0;}
	.st12{fill:#663259;}
	.st13{opacity:0.3;fill:#663259;enable-background:new    ;}
	.st14{fill:#263238;}
	.st15{fill:#FF8B7B;}
	.st16{fill:#FF5652;}
	.st17{opacity:0.2;enable-background:new    ;}
	.st18{opacity:0.4;enable-background:new    ;}
	.st19{opacity:0.3;enable-background:new    ;}
	.st20{opacity:0.6;fill:#F4E1F0;enable-background:new    ;}
	.st21{opacity:0.3;fill:#F4E1F0;enable-background:new    ;}
</style>
<g id="Background_Complete">
	<g>
		<g>
			<g>
				<polygon class="st0" points="184.9,307.1 104.1,307.1 99.2,250.5 180,250.5 				"/>
				<polygon class="st1" points="189.1,307.1 108.3,307.1 103.4,250.5 184.2,250.5 				"/>
				<polygon class="st2" points="119.3,294.9 116.6,262.6 173.1,262.6 175.8,294.9 				"/>
			</g>
			<g>
				<rect x="193.6" y="307.1" class="st0" width="9.5" height="105.6"/>
				<rect x="199.5" y="307.1" class="st1" width="6.6" height="105.6"/>
				<rect x="114.3" y="307.1" class="st1" width="91.8" height="11.7"/>
				<rect x="108" y="318.7" class="st0" width="9.5" height="94"/>
				<rect x="113.9" y="318.7" class="st1" width="6.6" height="94"/>
				<rect x="40.5" y="318.7" class="st0" width="9.5" height="94"/>
				<rect x="46.4" y="318.7" class="st1" width="6.6" height="94"/>
				<rect x="133.6" y="318.7" class="st0" width="9.5" height="94"/>
				<rect x="139.5" y="318.7" class="st1" width="6.6" height="94"/>
				<rect x="40.5" y="307.1" class="st0" width="73.8" height="11.7"/>
			</g>
		</g>
		<g>
			<g>
				<rect x="104" y="43.8" class="st3" width="285.3" height="158.8"/>
				<rect x="105.4" y="43.8" class="st4" width="299.6" height="158.8"/>
				<rect x="110.3" y="48.7" class="st2" width="289.8" height="149.1"/>
				<polygon class="st4" points="227.7,197.7 282.4,48.7 192.1,48.7 137.4,197.7 				"/>
				<polygon class="st4" points="314.6,197.7 369.3,48.7 301.2,48.7 246.5,197.7 				"/>
			</g>
		</g>
		<g>
			<g>
				<rect x="455.5" y="261" class="st0" width="24.3" height="151.7"/>
				<polygon class="st5" points="473.4,412.7 479.8,412.7 479.8,401 466.7,401 				"/>
				<rect x="231.9" y="261" class="st0" width="24.3" height="151.7"/>
				<rect x="250.6" y="261" class="st5" width="229.2" height="148.6"/>
				<path class="st0" d="M475.4,308.9H254.9v-42h220.5V308.9z M256.1,307.7h218.1v-39.5H256.1L256.1,307.7L256.1,307.7z"/>
				<path class="st0" d="M436.6,287.3H298c-6.4,0-12.6-5.2-17-14.2l-0.4-0.9H454l-0.4,0.9C449.2,282.1,443,287.3,436.6,287.3z
					 M282.5,273.4c4.1,8.1,9.7,12.7,15.5,12.7h138.6c5.7,0,11.3-4.6,15.5-12.7H282.5z"/>
				<polygon class="st5" points="257,412.7 250.6,412.7 250.6,401 263.6,401 				"/>
				<path class="st0" d="M475.4,356.2H254.9v-42h220.5V356.2z M256.1,355h218.1v-39.5H256.1L256.1,355L256.1,355z"/>
				<path class="st0" d="M436.6,334.7H298c-6.4,0-12.6-5.2-17-14.2l-0.4-0.9H454l-0.4,0.9C449.2,329.5,443,334.7,436.6,334.7z
					 M282.5,320.8c4.1,8.1,9.7,12.7,15.5,12.7h138.6c5.7,0,11.3-4.6,15.5-12.7H282.5z"/>
				<path class="st0" d="M475.4,403.6H254.9v-42h220.5V403.6z M256.1,402.3h218.1v-39.5H256.1L256.1,402.3L256.1,402.3z"/>
				<path class="st0" d="M436.6,382H298c-6.4,0-12.6-5.2-17-14.2l-0.4-0.9H454l-0.4,0.9C449.2,376.8,443,382,436.6,382z
					 M282.5,368.1c4.1,8.1,9.7,12.7,15.5,12.7h138.6c5.7,0,11.3-4.6,15.5-12.7H282.5z"/>
			</g>
		</g>
		<g>
			<polygon class="st0" points="93.6,281 93.6,284 91.7,284 90.2,307.1 67.2,307.1 65.7,284 63.8,284 63.8,281 			"/>
			<path class="st0" d="M86.1,223.7c-1.9-13.8-20.4-17.7-44-18.2c-22.4-0.5-29.6-8.4-29.6-8.4s0.1,32.1,32.4,43.7
				C75.5,251.9,88,237.5,86.1,223.7z"/>
			<path class="st0" d="M74.6,254.9c0.4-5.7,9.4-16.1,31.2-11.3c15.7,3.4,21.6-4.7,21.6-4.7s-1.4,23-25.1,29.9
				C79.8,275.3,73.9,264.9,74.6,254.9z"/>
			<path class="st0" d="M79.6,289.7c0.2,0,0.5-0.1,0.6-0.3c1.6-1.9,0.3-6.3-1.5-12.5c-2.3-7.9-5.1-17.8-2.7-24.9c1.4-4,3-7.6,4.7-11
				c3.4-7.2,6.4-13.4,3.9-19.9c-0.2-0.4-0.6-0.7-1.1-0.5c-0.4,0.2-0.6,0.6-0.5,1.1c2.2,5.8-0.5,11.5-3.8,18.6
				c-1.6,3.3-3.4,7.1-4.7,11.2c-2.6,7.7,0.4,17.8,2.7,25.9c1.4,4.8,2.8,9.8,1.8,10.9c-0.3,0.4-0.3,0.9,0.1,1.2
				C79.2,289.7,79.4,289.7,79.6,289.7z"/>
		</g>
	</g>
</g>
<g id="Background_Simple" class="st6">
	<g class="st7">
		<path class="st8" d="M401.9,174.3c-6.8,54.2-54.3,108.4-106.5,143.2C160.3,408.4,29.8,254.2,62.7,198.9
			c24.7-56.1,101.8-40.7,134.6-62.8C381.6,11.2,408.2,128.9,401.9,174.3z"/>
		<path class="st9" d="M401.9,174.3c-6.8,54.2-54.3,108.4-106.5,143.2C160.3,408.4,29.8,254.2,62.7,198.9
			c24.7-56.1,101.8-40.7,134.6-62.8C381.6,11.2,408.2,128.9,401.9,174.3z"/>
	</g>
</g>
<g id="Shadow_1_">
	<ellipse id="_x3C_Path_x3E__191_" class="st10" cx="250.7" cy="453.9" rx="236.1" ry="13.8"/>
</g>
<g id="Login">
	<g>
		<polygon class="st11" points="250.7,386.7 77.8,386.7 68.3,108.6 241.2,108.6 		"/>
		<g>
			<polygon class="st12" points="259.3,378.1 86.4,378.1 76.9,100 249.8,100 			"/>
			<polygon class="st13" points="259.3,378.1 86.4,378.1 76.9,100 249.8,100 			"/>
		</g>
		<g>
			
				<ellipse transform="matrix(0.7011 -0.7131 0.7131 0.7011 -78.5322 172.1778)" class="st11" cx="166.1" cy="179.8" rx="47.8" ry="49.5"/>
			<path class="st2" d="M206.2,179.8c0.2,6.9-1.3,13.4-4.2,19.1c-6.3,12.5-19.3,21-34.6,21s-28.8-8.5-36-21
				c-3.3-5.7-5.3-12.2-5.5-19.1c-0.8-22.2,16.6-40.1,38.8-40.1S205.5,157.6,206.2,179.8z"/>
			<path class="st13" d="M202,198.9c-6.3,12.5-19.3,21-34.6,21s-28.8-8.5-36-21c9.9-6.7,21.9-10.7,34.9-10.7
				C179.4,188.2,191.7,192.1,202,198.9z"/>
			
				<ellipse transform="matrix(0.7011 -0.7131 0.7131 0.7011 -68.8713 167.7405)" class="st13" cx="165.6" cy="166" rx="17.6" ry="18.2"/>
		</g>
		<polygon class="st2" points="224.6,277.4 114.3,277.4 113.5,255.5 223.8,255.5 		"/>
		<polygon class="st2" points="225.9,316.5 115.6,316.5 114.9,294.6 225.2,294.6 		"/>
		<path class="st11" d="M183.3,297.6l-26.6,3.6c-1.1,0.1-1.8,1.1-1.6,2.2l3.5,17.8c0.2,1.1,1.3,1.8,2.4,1.7l26.6-3.6
			c1.1-0.1,1.8-1.1,1.6-2.2l-3.5-17.8C185.5,298.2,184.4,297.5,183.3,297.6z M175.7,315.7l-4.8,0.7l-0.5-5.7c-1-0.5-1.8-1.4-2-2.4
			c-0.3-1.7,0.8-3.4,2.6-3.6c1.8-0.2,3.5,1,3.8,2.7c0.2,1.1-0.1,2.1-0.9,2.8L175.7,315.7z"/>
		<path class="st11" d="M180.7,296.7L180.7,296.7c-1,0.1-1.9-0.5-2.1-1.5l-0.3-1.7c-0.9-4.8-5.5-8.4-10.5-8
			c-5.3,0.5-8.9,5.2-7.9,10.2l0.4,2c0.2,0.9-0.5,1.8-1.4,1.9l0,0c-1,0.1-1.9-0.5-2.1-1.5l-0.3-1.7c-1.3-6.7,2.9-13.1,9.7-14.3
			c7.2-1.2,14.2,3.6,15.6,10.5l0.4,2C182.3,295.7,181.7,296.6,180.7,296.7z"/>
		<polygon class="st11" points="207.7,347.2 135.9,347.2 135.4,333 207.2,333 		"/>
		<path class="st14" d="M173.1,266.4c0.1,2.2-1.7,4-3.9,4s-4.1-1.8-4.1-4c-0.1-2.2,1.7-4,3.9-4S173,264.2,173.1,266.4z"/>
		<path class="st14" d="M155.8,266.4c0.1,2.2-1.7,4-3.9,4c-2.2,0-4.1-1.8-4.1-4c-0.1-2.2,1.7-4,3.9-4
			C153.9,262.4,155.7,264.2,155.8,266.4z"/>
		<path class="st14" d="M138.5,266.4c0.1,2.2-1.7,4-3.9,4c-2.2,0-4.1-1.8-4.1-4c-0.1-2.2,1.7-4,3.9-4S138.5,264.2,138.5,266.4z"/>
		<path class="st14" d="M190.3,266.4c0.1,2.2-1.7,4-3.9,4s-4.1-1.8-4.1-4c-0.1-2.2,1.7-4,3.9-4S190.2,264.2,190.3,266.4z"/>
		<path class="st14" d="M207.6,266.4c0.1,2.2-1.7,4-3.9,4s-4.1-1.8-4.1-4c-0.1-2.2,1.7-4,3.9-4S207.5,264.2,207.6,266.4z"/>
	</g>
</g>
<g id="Character_1_">
	<g>
		<path class="st15" d="M352.9,159.3c1.6,2.6,3,5.1,4.4,7.7c1.4,2.6,2.6,5.2,3.9,7.9c2.4,5.3,4.6,10.8,6.2,16.7
			c0.2,0.7,0.4,1.5,0.6,2.2l0.3,1.1l0.1,0.6l0.2,0.9c0.4,2.5,0,4.5-0.4,6.3c-0.9,3.5-2.3,6.4-3.8,9.1c-3.1,5.3-6.7,9.9-10.8,14.2
			l-5.1-3.9c2.5-4.8,5-9.8,6.9-14.7c0.9-2.4,1.6-4.8,1.9-6.9c0.1-1,0-1.8-0.1-2.2l-0.5-1.5c-0.2-0.6-0.4-1.2-0.6-1.8
			c-1.8-4.9-4-9.9-6.4-14.7c-2.4-4.8-5.1-9.8-7.7-14.4L352.9,159.3z"/>
		<path class="st15" d="M349.6,220.3l-5.6,3l6.4,7.5c0,0,4-2.7,4.2-6.9L349.6,220.3z"/>
		<polygon class="st15" points="336.5,227.9 343.4,233.4 350.5,230.8 344,223.3 		"/>
		<path class="st14" d="M313,119.4c-0.1,0.7-0.6,1.2-1,1.1c-0.4-0.1-0.7-0.7-0.5-1.4c0.1-0.7,0.6-1.2,1-1.1
			C312.9,118.2,313.1,118.8,313,119.4z"/>
		<path class="st16" d="M312.5,120.6c0,0-2.3,3.6-4.4,5.1c1,1.4,3.1,1.3,3.1,1.3L312.5,120.6z"/>
		<path class="st15" d="M310.3,144.5l0-8l10.6,1.3c0,0-0.2,6.9-6.1,8.9L310.3,144.5z"/>
		<polygon class="st15" points="313.3,130.8 320.7,132.9 320.9,137.8 310.3,136.5 		"/>
		<path class="st17" d="M320.7,132.9l-7.4-2.1l-1.4,2.8c0.2,4.7,3.1,8.6,6.9,10.3c2.1-2.7,2.2-6.1,2.2-6.1L320.7,132.9z"/>
		<path class="st14" d="M316.2,116.2c0.1,0,0.2,0,0.3-0.1c0.2-0.1,0.2-0.4,0-0.6c-1.5-1.6-3.4-1.4-3.4-1.3c-0.2,0-0.4,0.2-0.3,0.5
			c0,0.2,0.3,0.4,0.5,0.3l0,0c0.1,0,1.5-0.2,2.7,1.1C316,116.1,316.1,116.2,316.2,116.2z"/>
		<path class="st15" d="M331.8,131.8c-1.2,6.3-2,14.9,2.4,19.1c0,0-1.7,6.4-13.4,6.4c-12.8,0-6.2-5.6-6.2-5.6
			c5.3-1.7,5.3-7.7,4.1-12.6L331.8,131.8z"/>
		<path class="st11" d="M336.6,155.1c1.1-1.6,1.1-6.7-0.1-7.6c-2-1.4-10.4-1.8-21.7,0.8c1.2,4.9-1.4,7.5-1.4,7.5L336.6,155.1z"/>
		<path class="st12" d="M374.7,444.2c-0.9,0.2-1.7,0.2-2.1-0.1c-0.2-0.1-0.4-0.4-0.2-0.9c0.1-0.3,0.3-0.5,0.5-0.6
			c1.2-0.5,3.8,0.5,3.9,0.6c0.1,0,0.1,0.1,0.1,0.2s0,0.2-0.1,0.2C376.4,443.6,375.5,444,374.7,444.2z M373.3,442.8
			c-0.1,0-0.2,0-0.2,0.1c-0.2,0.1-0.3,0.2-0.3,0.3c-0.1,0.4,0,0.5,0.1,0.5c0.5,0.4,2.2,0,3.4-0.5C375.4,443,374,442.6,373.3,442.8z"
			/>
		<path class="st12" d="M376.8,443.5C376.7,443.5,376.7,443.5,376.8,443.5c-1.1-0.3-3.1-1.8-3.2-2.7c0-0.2,0.1-0.5,0.5-0.7
			c0.3-0.1,0.6-0.1,0.9,0.1c1.1,0.6,1.9,3,1.9,3.1c0,0.1,0,0.1,0,0.2C376.8,443.4,376.8,443.5,376.8,443.5z M374.3,440.4
			C374.3,440.4,374.3,440.4,374.3,440.4c-0.3,0.1-0.3,0.2-0.3,0.3c0,0.6,1.4,1.7,2.4,2.2c-0.3-0.7-0.8-2-1.6-2.4
			C374.6,440.4,374.5,440.4,374.3,440.4z"/>
		<path class="st12" d="M311.4,445.6c-1.1,0-2.2-0.1-2.5-0.6c-0.1-0.2-0.2-0.5,0-0.9c0.1-0.2,0.4-0.4,0.6-0.5
			c1.4-0.4,4.4,1.3,4.5,1.4c0.1,0,0.1,0.1,0.1,0.2c0,0.1-0.1,0.1-0.2,0.2C313.5,445.5,312.5,445.6,311.4,445.6z M310.1,443.9
			c-0.1,0-0.3,0-0.4,0c-0.2,0-0.3,0.1-0.4,0.3c-0.1,0.3-0.1,0.4,0,0.5c0.4,0.5,2.6,0.6,4.2,0.3C312.6,444.6,311.1,443.9,310.1,443.9
			z"/>
		<path class="st12" d="M314,445.3C314,445.3,314,445.3,314,445.3c-1.1-0.5-3.2-2.3-3-3.3c0-0.2,0.2-0.5,0.8-0.6
			c0.4,0,0.8,0.1,1.1,0.4c1.1,0.9,1.3,3.2,1.3,3.3c0,0.1,0,0.1-0.1,0.2C314.1,445.3,314.1,445.3,314,445.3z M311.9,441.9
			c0,0-0.1,0-0.1,0c-0.4,0-0.4,0.2-0.4,0.2c-0.1,0.6,1.3,2,2.3,2.7c-0.1-0.7-0.4-2.1-1.1-2.6C312.4,442,312.2,441.9,311.9,441.9z"/>
		<polygon class="st15" points="323.4,445.2 314.9,445.2 314,425.3 322.6,425.3 		"/>
		<polygon class="st15" points="386.3,441.2 377.9,443 369.5,424.5 377.9,422.7 		"/>
		<path class="st11" d="M377.1,442.2l9.4-2c0.3-0.1,0.7,0.1,0.8,0.4l3.3,7.1c0.3,0.7-0.1,1.6-0.9,1.8c-3.3,0.7-4.9,0.8-9.1,1.7
			c-2.5,0.5-8.3,1.9-11.8,2.7c-3.4,0.7-4.7-2.6-3.3-3.2c6.1-2.8,8.7-5.3,10.4-7.6C376.2,442.5,376.6,442.3,377.1,442.2z"/>
		<path class="st11" d="M314.9,444.2h9.4c0.4,0,0.7,0.2,0.7,0.6l1.7,7.6c0.2,0.8-0.4,1.5-1.2,1.5c-3.4-0.1-8.2-0.3-12.5-0.3
			c-5,0-9.2,0.3-15,0.3c-3.5,0-4.5-3.6-3-3.9c6.7-1.5,12.2-1.6,18-5.2C313.5,444.4,314.2,444.2,314.9,444.2z"/>
		<g>
			<path class="st12" d="M349.6,152.8c8,1.8,14.6,22.3,14.6,22.3l-16.1,12.3c0,0-5.9-5.6-8.5-15.8
				C336.8,160.9,341.3,151,349.6,152.8z"/>
			<path class="st18" d="M349.6,152.8c8,1.8,14.6,22.3,14.6,22.3l-16.1,12.3c0,0-5.9-5.6-8.5-15.8
				C336.8,160.9,341.3,151,349.6,152.8z"/>
		</g>
		<path class="st15" d="M307.3,177.3c-2,2.2-4,4.1-6.1,6.1c-1,1-2.1,1.9-3.2,2.9l-1.6,1.4l-0.4,0.4c-0.2,0.2-0.4,0.4-0.7,0.6
			c-0.5,0.4-1.1,0.9-2.3,1.4c-0.6,0.3-1.5,0.6-3,0.6c-0.7,0-1.6-0.1-2.6-0.5c-0.9-0.3-1.8-0.9-2.4-1.5c-1.3-1.3-1.7-2.4-1.9-3.2
			c-0.2-0.8-0.3-1.3-0.4-1.8c-0.1-0.9,0-1.6,0-2.2c0.1-0.6,0.1-1.1,0.2-1.6c0.4-1.9,0.9-3.4,1.4-4.9c0.6-1.5,1.2-2.9,1.9-4.4
			c0.8-1.5,1.5-2.7,2.3-4c3-5,6.5-9.6,10.3-14c3.8-4.3,7.9-8.2,12.5-11.8l4.5,4.6c-3.2,4.2-6.2,8.7-9.1,13.2
			c-2.9,4.5-5.5,9-7.8,13.7c-0.5,1.1-1.2,2.4-1.5,3.4c-0.4,1-0.8,2.2-1.1,3.3c-0.3,1.1-0.6,2.2-0.7,3.1c0,0.2,0,0.4,0,0.5
			c0,0.1,0,0.1,0-0.1c0-0.1,0-0.4-0.2-0.8c-0.1-0.4-0.4-1.2-1.4-2.3c-0.5-0.5-1.2-1-2-1.3c-0.7-0.3-1.5-0.4-2-0.4
			c-1.1,0-1.6,0.3-2,0.4c-0.6,0.3-0.6,0.3-0.6,0.3l0.5-0.4l1.5-1.3l2.9-2.7c1.9-1.8,3.9-3.8,5.7-5.6L307.3,177.3z"/>
		<path class="st17" d="M342.7,167.9c4.4,4.3,5.8,12.2,6.1,19l-0.7,0.5c0,0-5.9-5.6-8.6-15.8c-0.2-0.6-0.3-1.3-0.4-1.9L342.7,167.9z
			"/>
		<g>
			<path class="st12" d="M298.8,161.4c-1.8,9.3-2.8,28.2,2.2,65.9h45.8c0.3-7-4.1-41.3,2.7-74.5c0,0-7.9-1.6-15.3-1.9
				c-5.9-0.3-14.3-0.5-19.5,0c-2.1,0.2-4.3,0.5-6.1,0.8C303.6,152.6,299.8,156.5,298.8,161.4z"/>
			<path class="st18" d="M298.8,161.4c-1.8,9.3-2.8,28.2,2.2,65.9h45.8c0.3-7-4.1-41.3,2.7-74.5c0,0-7.9-1.6-15.3-1.9
				c-5.9-0.3-14.3-0.5-19.5,0c-2.1,0.2-4.3,0.5-6.1,0.8C303.6,152.6,299.8,156.5,298.8,161.4z"/>
		</g>
		<path class="st17" d="M305.8,175.1l-8.3-2c-0.3,5-0.3,11.2,0.1,18.9C301.5,187.7,306.3,180.9,305.8,175.1z"/>
		<g>
			<polygon class="st17" points="314,425.3 314.5,435.5 323,435.5 322.6,425.3 			"/>
			<polygon class="st17" points="377.9,422.7 369.5,424.5 373.9,434.1 382.2,432.2 			"/>
		</g>
		<path class="st15" d="M335.9,122.6c-2.2,8.2-3.1,13.1-8.1,16.5c-7.6,5.1-17.1-0.8-17.4-9.5c-0.3-7.8,3.4-19.9,12.2-21.6
			C331.2,106.5,338.1,114.4,335.9,122.6z"/>
		<path class="st14" d="M316.7,122.9c-0.4-1.1-2.3-9.6-0.5-11.8c1.8-2.2,22.1-0.6,25,2.3c5,4.9,1.5,9.3-3.9,14.9
			c-4.1,4.2-4.2,9-6.3,9.7c-3.6,1.2-9.2,0.1-10.4-3.8C319.5,130.4,316.7,122.9,316.7,122.9z"/>
		<path class="st14" d="M338.7,103.8c-7.2-3.1-20.6,0.3-27.8-1.4c-0.3,3.8,2,9.8,9.3,11.4c0,0,10.3,2,18.3,1.7
			C346.4,115.1,344.8,106.4,338.7,103.8z"/>
		<path class="st14" d="M339.8,113.7c0,0,4.4,0.5,7.6-1.4C348.8,115.5,341.4,116.4,339.8,113.7z"/>
		<path class="st15" d="M320.5,123.3c-0.1,2.2-1.2,4.3-2.4,5.7c-1.9,2.1-3.8,0.8-4.2-1.7c-0.3-2.3,0.3-6,2.6-7.2
			C318.8,118.9,320.7,120.7,320.5,123.3z"/>
		<path class="st12" d="M317.3,227.3c0,0,9.7,65.4,15,90c5.8,26.8,37.2,115.7,37.2,115.7l15.3-3.3c0,0-21.9-72.4-26.8-109.9
			c-3.8-28.8-11.2-92.4-11.2-92.4L317.3,227.3L317.3,227.3z"/>
		<path class="st14" d="M365.9,427.8c-0.1,0,2.9,5.5,2.9,5.5l17.3-3.7l-1.4-5.2L365.9,427.8z"/>
		<path class="st19" d="M323.5,250.6c11.2,2.2,10,44.1,8.7,65.7c-3.2-15.2-8-44.6-11.2-65.4C321.7,250.5,322.5,250.4,323.5,250.6z"
			/>
		<path class="st12" d="M301.1,227.3c0,0-1.2,64-0.2,90.2c1,27.2,10.5,116.1,10.5,116.1h14.5c0,0,0.5-87.4,1.2-114
			c0.7-29.1,4.2-92.2,4.2-92.2L301.1,227.3L301.1,227.3z"/>
		<path class="st14" d="M308.5,427.8c-0.1,0,0.8,6,0.8,6h17.6l0.5-5.4L308.5,427.8z"/>
		<g>
			<path class="st12" d="M316.8,164.2c4.1,11.1-20,24.1-20,24.1l-10.4-13.4c0,0,7-13.9,15.5-20.1
				C312.4,147.1,313.6,155.8,316.8,164.2z"/>
			<path class="st18" d="M316.8,164.2c4.1,11.1-20,24.1-20,24.1l-10.4-13.4c0,0,7-13.9,15.5-20.1
				C312.4,147.1,313.6,155.8,316.8,164.2z"/>
		</g>
	</g>
</g>
<g id="Thinking">
	<g>
		<ellipse class="st11" cx="411.3" cy="52.2" rx="43.9" ry="28"/>
		<path class="st12" d="M395.4,66.3c-2.4,0-4.8-0.7-6.9-2.1c-2.8-1.9-4.6-4.8-5.2-8.1c-1.1-6.3,3.1-12.7,9.4-14.1l0,0
			c5.2-1.2,10.4,1,13.2,5.5l28.2-5.8c2.3-0.5,4.6,0.9,5.2,3c0.3,1.1,0.1,2.3-0.5,3.3c-0.6,1-1.6,1.7-2.8,1.9l-0.7,0.2
			c-0.2,0-0.4,0.2-0.5,0.4c-0.1,0.2-0.1,0.4,0,0.6l0.5,1.3c0.3,0.9,0,1.9-0.8,2.3c-0.6,0.4-1,1-1.1,1.7c-0.1,0.9-0.7,1.5-1.5,1.7
			l-0.6,0.1c-0.8,0.2-1.6-0.2-2-1c-0.5-0.9-1.5-1.3-2.5-1.1c-1,0.2-1.8,1-1.9,2c-0.1,0.9-0.7,1.5-1.5,1.7l-0.6,0.1
			c-0.8,0.2-1.6-0.2-2-1c-0.4-0.6-1-1-1.7-1.1c-0.9-0.1-1.6-0.9-1.6-1.9l-0.1-1.4c0-0.2-0.1-0.4-0.3-0.6c-0.2-0.1-0.4-0.2-0.6-0.1
			l-9,1.9c-0.8,5.1-4.6,9.2-9.7,10.2C397.1,66.2,396.3,66.3,395.4,66.3z M393,43.2c-5.6,1.3-9.4,7-8.5,12.7c0.5,3,2.2,5.6,4.7,7.3
			c2.5,1.7,5.5,2.3,8.5,1.7c4.7-1,8.2-4.8,8.8-9.6l0-0.4l9.8-2c0.6-0.1,1.2,0,1.6,0.4s0.7,0.9,0.8,1.5l0.1,1.4
			c0,0.4,0.3,0.6,0.6,0.7c1.1,0.2,2,0.8,2.6,1.7c0.1,0.2,0.4,0.5,0.7,0.4l0.6-0.1c0.3-0.1,0.5-0.4,0.5-0.6c0.2-1.5,1.3-2.8,2.8-3.1
			c1.5-0.3,3,0.4,3.8,1.7c0.1,0.2,0.4,0.5,0.7,0.4l0.6-0.1c0.3-0.1,0.5-0.4,0.5-0.6c0.1-1.1,0.7-2,1.7-2.6c0.3-0.2,0.4-0.5,0.3-0.9
			l-0.5-1.3c-0.2-0.5-0.2-1.1,0.1-1.7c0.3-0.5,0.8-0.9,1.3-1l0.7-0.2c0.8-0.2,1.5-0.7,2-1.4c0.4-0.7,0.6-1.6,0.4-2.4
			c-0.4-1.5-2.1-2.5-3.8-2.2l-29.1,6l-0.2-0.4C402.6,44.2,397.8,42.1,393,43.2L393,43.2z M395.4,61.8c-1.5,0-3-0.4-4.3-1.3
			c-1.7-1.1-2.9-2.9-3.3-4.9c-0.4-2,0-4.1,1.1-5.9c1.1-1.7,2.9-2.9,4.9-3.3c2-0.4,4.1,0,5.9,1.1c1.7,1.1,2.9,2.9,3.3,4.9
			s0,4.1-1.1,5.9c-1.1,1.7-2.9,2.9-4.9,3.3l0,0C396.5,61.7,396,61.8,395.4,61.8z M395.5,47.4c-0.5,0-0.9,0-1.4,0.1
			c-1.7,0.4-3.2,1.4-4.2,2.8c-1,1.5-1.3,3.2-0.9,4.9c0.4,1.7,1.4,3.2,2.8,4.2c1.5,1,3.2,1.3,4.9,0.9l0,0c1.7-0.4,3.2-1.4,4.2-2.8
			c1-1.5,1.3-3.2,0.9-4.9c-0.4-1.7-1.4-3.2-2.8-4.2C398,47.8,396.7,47.4,395.5,47.4z"/>
		<ellipse class="st20" cx="375.5" cy="87.4" rx="14.4" ry="9.2"/>
		<ellipse class="st21" cx="352.5" cy="96.6" rx="5.9" ry="3.8"/>
	</g>
</g>
</svg>
