<?xml version="1.0" encoding="utf-8"?>
<!-- Generator: Adobe Illustrator 24.2.0, SVG Export Plug-In . SVG Version: 6.00 Build 0)  -->
<svg version="1.1" id="Capa_1" xmlns="http://www.w3.org/2000/svg" xmlns:xlink="http://www.w3.org/1999/xlink" x="0px" y="0px"
	 viewBox="0 0 500 500" style="enable-background:new 0 0 500 500;" xml:space="preserve">
<style type="text/css">
	.st0{fill:#E0E0E0;}
	.st1{fill:#E6E6E6;}
	.st2{fill:#F5F5F5;}
	.st3{fill:#F0F0F0;}
	.st4{fill:#EBEBEB;}
	.st5{fill:#FAFAFA;}
	.st6{display:none;}
	.st7{display:inline;}
	.st8{fill:#407BFF;}
	.st9{opacity:0.9;fill:#FFFFFF;enable-background:new    ;}
	.st10{fill:#331A2E;}
	.st11{fill:#263238;}
	.st12{opacity:0.2;fill:#FFFFFF;enable-background:new    ;}
	.st13{opacity:0.1;fill:#FFFFFF;enable-background:new    ;}
	.st14{opacity:0.3;fill:#FFFFFF;enable-background:new    ;}
	.st15{fill:#FF8B7B;}
	.st16{opacity:0.2;fill:#263238;enable-background:new    ;}
	.st17{opacity:0.5;enable-background:new    ;}
	.st18{opacity:0.4;enable-background:new    ;}
	.st19{fill:#CE7A63;}
	.st20{opacity:0.1;enable-background:new    ;}
	.st21{opacity:0.2;enable-background:new    ;}
	.st22{opacity:0.8;fill:#FFFFFF;enable-background:new    ;}
	.st23{fill:#BA4D3C;}
	.st24{fill:#5B2B51;}
	.st25{opacity:0.4;fill:#FFFFFF;enable-background:new    ;}
	.st26{opacity:0.6;fill:#FFFFFF;enable-background:new    ;}
	.st27{opacity:0.7;fill:#FFFFFF;enable-background:new    ;}
	.st28{opacity:0.3;enable-background:new    ;}
	.st29{opacity:0.5;fill:#FFFFFF;enable-background:new    ;}
	.st30{fill:#663259;}
	.st31{fill:#FF5652;}
	.st32{fill:#F4E1F0;}
	.st33{opacity:0.2;}
	.st34{fill:#FFFFFF;}
</style>
<g id="Background_Complete">
	<g>
		<g>
			<rect x="369.9" y="122.7" class="st0" width="97.4" height="245.4"/>
			<path class="st1" d="M467.3,120.5v249.7h17.9V120.5H467.3z"/>
			<path class="st1" d="M352.9,120.5v249.7h17.9V120.5H352.9z"/>
			<path class="st2" d="M349.8,120.5v249.7h119.7V120.5H349.8z M465.2,124.9v44.8H354.1v-44.8H465.2z M354.1,267.8V223h111.1v44.8
				H354.1z M465.2,272.1v44.8H354.1v-44.8H465.2z M354.1,218.7v-44.8h111.1v44.8H354.1z M354.1,365.9v-44.8h111.1v44.8H354.1z"/>
			<g>
				<rect x="426.4" y="135.3" class="st1" width="4.1" height="34.7"/>
				<rect x="430.5" y="135.3" class="st0" width="4.1" height="34.7"/>
				<rect x="418.1" y="137.7" class="st1" width="8.3" height="32.3"/>
				<rect x="408.6" y="135.3" class="st3" width="5.4" height="34.7"/>
				<rect x="413.9" y="135.3" class="st4" width="4.1" height="34.7"/>
				<rect x="377.2" y="135.3" class="st1" width="5.4" height="34.7"/>
				<rect x="382.6" y="135.3" class="st4" width="4.1" height="34.7"/>
				<rect x="395" y="135.3" class="st1" width="5.4" height="34.7"/>
				<rect x="400.3" y="135.3" class="st0" width="4.1" height="34.7"/>
				<rect x="368.9" y="136.1" class="st4" width="8.3" height="33.9"/>
				<rect x="364.8" y="136.1" class="st0" width="4.1" height="33.9"/>
				<rect x="389.4" y="136.1" class="st0" width="5.5" height="33.9"/>
				<rect x="386.7" y="136.1" class="st3" width="2.8" height="33.9"/>
				<rect x="400.3" y="137.7" class="st2" width="8.3" height="32.3"/>
				<rect x="447.1" y="135.3" class="st4" width="5.4" height="34.7"/>
				<rect x="452.4" y="135.3" class="st1" width="4.1" height="34.7"/>
				<rect x="438.8" y="136.1" class="st0" width="8.3" height="33.9"/>
				<rect x="434.6" y="136.1" class="st4" width="4.1" height="33.9"/>
				<rect x="459.3" y="136.1" class="st4" width="5.5" height="33.9"/>
				<rect x="456.6" y="136.1" class="st5" width="2.8" height="33.9"/>
			</g>
			<g>
				<rect x="399.1" y="183.9" class="st1" width="4.1" height="34.7"/>
				<rect x="395" y="183.9" class="st0" width="4.1" height="34.7"/>
				<rect x="403.3" y="186.4" class="st1" width="8.3" height="32.3"/>
				<rect x="415.7" y="183.9" class="st3" width="5.4" height="34.7"/>
				<rect x="411.5" y="183.9" class="st4" width="4.1" height="34.7"/>
				<rect x="447.1" y="183.9" class="st1" width="5.4" height="34.7"/>
				<rect x="442.9" y="183.9" class="st4" width="4.1" height="34.7"/>
				<rect x="429.3" y="183.9" class="st1" width="5.4" height="34.7"/>
				<rect x="425.2" y="183.9" class="st0" width="4.1" height="34.7"/>
				<rect x="452.4" y="184.8" class="st4" width="8.3" height="33.9"/>
				<rect x="460.7" y="184.8" class="st0" width="4.1" height="33.9"/>
				<rect x="434.7" y="184.8" class="st0" width="5.5" height="33.9"/>
				<rect x="440.2" y="184.8" class="st3" width="2.8" height="33.9"/>
				<rect x="421" y="186.4" class="st2" width="8.3" height="32.3"/>
				<rect x="377.2" y="183.9" class="st4" width="5.4" height="34.7"/>
				<rect x="373.1" y="183.9" class="st1" width="4.1" height="34.7"/>
				<rect x="382.5" y="184.8" class="st0" width="8.3" height="33.9"/>
				<rect x="390.8" y="184.8" class="st4" width="4.1" height="33.9"/>
				<rect x="364.8" y="184.8" class="st4" width="5.5" height="33.9"/>
				<rect x="370.3" y="184.8" class="st5" width="2.8" height="33.9"/>
			</g>
			<g>
				<rect x="399.1" y="233.4" class="st1" width="4.1" height="34.7"/>
				<rect x="395" y="233.4" class="st0" width="4.1" height="34.7"/>
				<rect x="403.3" y="235.9" class="st1" width="8.3" height="32.3"/>
				<rect x="415.7" y="233.4" class="st3" width="5.4" height="34.7"/>
				<rect x="411.5" y="233.4" class="st4" width="4.1" height="34.7"/>
				<rect x="447.1" y="233.4" class="st1" width="5.4" height="34.7"/>
				<rect x="442.9" y="233.4" class="st4" width="4.1" height="34.7"/>
				<rect x="429.3" y="233.4" class="st1" width="5.4" height="34.7"/>
				<rect x="425.2" y="233.4" class="st0" width="4.1" height="34.7"/>
				<rect x="452.4" y="234.3" class="st4" width="8.3" height="33.9"/>
				<rect x="460.7" y="234.3" class="st0" width="4.1" height="33.9"/>
				<rect x="434.7" y="234.3" class="st0" width="5.5" height="33.9"/>
				<rect x="440.2" y="234.3" class="st3" width="2.8" height="33.9"/>
				<rect x="421" y="235.9" class="st2" width="8.3" height="32.3"/>
				<rect x="377.2" y="233.4" class="st4" width="5.4" height="34.7"/>
				<rect x="373.1" y="233.4" class="st1" width="4.1" height="34.7"/>
				<rect x="382.5" y="234.3" class="st0" width="8.3" height="33.9"/>
				<rect x="390.8" y="234.3" class="st4" width="4.1" height="33.9"/>
				<rect x="364.8" y="234.3" class="st4" width="5.5" height="33.9"/>
				<rect x="370.3" y="234.3" class="st5" width="2.8" height="33.9"/>
			</g>
			<g>
				<rect x="426.4" y="282.9" class="st1" width="4.1" height="34.7"/>
				<rect x="430.5" y="282.9" class="st0" width="4.1" height="34.7"/>
				<rect x="418.1" y="282.9" class="st1" width="8.3" height="32.3"/>
				<rect x="408.6" y="282.9" class="st3" width="5.4" height="34.7"/>
				<rect x="413.9" y="282.9" class="st4" width="4.1" height="34.7"/>
				<rect x="377.2" y="282.9" class="st1" width="5.4" height="34.7"/>
				<rect x="382.6" y="282.9" class="st4" width="4.1" height="34.7"/>
				<rect x="395" y="282.9" class="st1" width="5.4" height="34.7"/>
				<rect x="400.3" y="282.9" class="st0" width="4.1" height="34.7"/>
				<rect x="368.9" y="282.9" class="st4" width="8.3" height="33.9"/>
				<rect x="364.8" y="282.9" class="st0" width="4.1" height="33.9"/>
				<rect x="389.4" y="282.9" class="st0" width="5.5" height="33.9"/>
				<rect x="386.7" y="282.9" class="st3" width="2.8" height="33.9"/>
				<rect x="400.3" y="282.9" class="st2" width="8.3" height="32.3"/>
				<rect x="447.1" y="282.9" class="st4" width="5.4" height="34.7"/>
				<rect x="452.4" y="282.9" class="st1" width="4.1" height="34.7"/>
				<rect x="438.8" y="282.9" class="st0" width="8.3" height="33.9"/>
				<rect x="434.6" y="282.9" class="st4" width="4.1" height="33.9"/>
				<rect x="459.3" y="282.9" class="st4" width="5.5" height="33.9"/>
				<rect x="456.6" y="282.9" class="st5" width="2.8" height="33.9"/>
			</g>
			<g>
				<rect x="399.1" y="332.5" class="st1" width="4.1" height="34.7"/>
				<rect x="395" y="332.5" class="st0" width="4.1" height="34.7"/>
				<rect x="403.3" y="332.5" class="st1" width="8.3" height="32.3"/>
				<rect x="415.7" y="332.5" class="st3" width="5.4" height="34.7"/>
				<rect x="411.5" y="332.5" class="st4" width="4.1" height="34.7"/>
				<rect x="447.1" y="332.5" class="st1" width="5.4" height="34.7"/>
				<rect x="442.9" y="332.5" class="st4" width="4.1" height="34.7"/>
				<rect x="429.3" y="332.5" class="st1" width="5.4" height="34.7"/>
				<rect x="425.2" y="332.5" class="st0" width="4.1" height="34.7"/>
				<rect x="452.4" y="332.5" class="st4" width="8.3" height="33.9"/>
				<rect x="460.7" y="332.5" class="st0" width="4.1" height="33.9"/>
				<rect x="434.7" y="332.5" class="st0" width="5.5" height="33.9"/>
				<rect x="440.2" y="332.5" class="st3" width="2.8" height="33.9"/>
				<rect x="421" y="332.5" class="st2" width="8.3" height="32.3"/>
				<rect x="377.2" y="332.5" class="st4" width="5.4" height="34.7"/>
				<rect x="373.1" y="332.5" class="st1" width="4.1" height="34.7"/>
				<rect x="382.5" y="332.5" class="st0" width="8.3" height="33.9"/>
				<rect x="390.8" y="332.5" class="st4" width="4.1" height="33.9"/>
				<rect x="364.8" y="332.5" class="st4" width="5.5" height="33.9"/>
				<rect x="370.3" y="332.5" class="st5" width="2.8" height="33.9"/>
			</g>
		</g>
	</g>
	<g>
		<g>
			<rect x="236.8" y="109.6" class="st0" width="111.5" height="281"/>
			<path class="st1" d="M348.3,107.1V393h20.5V107.1H348.3z"/>
			<path class="st1" d="M217.2,107.1V393h20.5V107.1H217.2z"/>
			<path class="st2" d="M213.7,107.1V393h137V107.1H213.7z M345.8,112.1v51.3H218.7v-51.3H345.8z M218.7,275.7v-51.3h127.2v51.3
				H218.7z M345.8,280.6v51.3H218.7v-51.3H345.8z M218.7,219.5v-51.3h127.2v51.3H218.7z M218.7,388.1v-51.3h127.2v51.3H218.7z"/>
			<g>
				<rect x="301.4" y="124" class="st1" width="4.7" height="39.8"/>
				<rect x="306.1" y="124" class="st0" width="4.7" height="39.8"/>
				<rect x="291.9" y="126.8" class="st1" width="9.5" height="37"/>
				<rect x="281.1" y="124" class="st3" width="6.1" height="39.8"/>
				<rect x="287.2" y="124" class="st4" width="4.7" height="39.8"/>
				<rect x="245.1" y="124" class="st1" width="6.1" height="39.8"/>
				<rect x="251.2" y="124" class="st4" width="4.7" height="39.8"/>
				<rect x="265.5" y="124" class="st1" width="6.1" height="39.8"/>
				<rect x="271.6" y="124" class="st0" width="4.7" height="39.8"/>
				<rect x="235.6" y="124.9" class="st4" width="9.5" height="38.8"/>
				<rect x="230.9" y="124.9" class="st0" width="4.7" height="38.8"/>
				<rect x="259.1" y="124.9" class="st0" width="6.3" height="38.8"/>
				<rect x="256" y="124.9" class="st3" width="3.2" height="38.8"/>
				<rect x="271.6" y="126.8" class="st2" width="9.5" height="37"/>
				<rect x="325.1" y="124" class="st4" width="6.1" height="39.8"/>
				<rect x="331.2" y="124" class="st1" width="4.7" height="39.8"/>
				<rect x="315.6" y="124.9" class="st0" width="9.5" height="38.8"/>
				<rect x="310.9" y="124.9" class="st4" width="4.7" height="38.8"/>
				<rect x="339.1" y="124.9" class="st4" width="6.3" height="38.8"/>
				<rect x="336" y="124.9" class="st5" width="3.2" height="38.8"/>
			</g>
			<g>
				<rect x="270.2" y="179.7" class="st1" width="4.7" height="39.8"/>
				<rect x="265.5" y="179.7" class="st0" width="4.7" height="39.8"/>
				<rect x="274.9" y="182.5" class="st1" width="9.5" height="37"/>
				<rect x="289.2" y="179.7" class="st3" width="6.1" height="39.8"/>
				<rect x="284.4" y="179.7" class="st4" width="4.7" height="39.8"/>
				<rect x="325.1" y="179.7" class="st1" width="6.1" height="39.8"/>
				<rect x="320.4" y="179.7" class="st4" width="4.7" height="39.8"/>
				<rect x="304.8" y="179.7" class="st1" width="6.1" height="39.8"/>
				<rect x="300" y="179.7" class="st0" width="4.7" height="39.8"/>
				<rect x="331.2" y="180.6" class="st4" width="9.5" height="38.8"/>
				<rect x="340.7" y="180.6" class="st0" width="4.7" height="38.8"/>
				<rect x="310.9" y="180.6" class="st0" width="6.3" height="38.8"/>
				<rect x="317.2" y="180.6" class="st3" width="3.2" height="38.8"/>
				<rect x="295.3" y="182.5" class="st2" width="9.5" height="37"/>
				<rect x="245.1" y="179.7" class="st4" width="6.1" height="39.8"/>
				<rect x="240.4" y="179.7" class="st1" width="4.7" height="39.8"/>
				<rect x="251.2" y="180.6" class="st0" width="9.5" height="38.8"/>
				<rect x="260.7" y="180.6" class="st4" width="4.7" height="38.8"/>
				<rect x="230.9" y="180.6" class="st4" width="6.3" height="38.8"/>
				<rect x="237.2" y="180.6" class="st5" width="3.2" height="38.8"/>
			</g>
			<g>
				<rect x="270.2" y="236.4" class="st1" width="4.7" height="39.8"/>
				<rect x="265.5" y="236.4" class="st0" width="4.7" height="39.8"/>
				<rect x="274.9" y="239.2" class="st1" width="9.5" height="37"/>
				<rect x="289.2" y="236.4" class="st3" width="6.1" height="39.8"/>
				<rect x="284.4" y="236.4" class="st4" width="4.7" height="39.8"/>
				<rect x="325.1" y="236.4" class="st1" width="6.1" height="39.8"/>
				<rect x="320.4" y="236.4" class="st4" width="4.7" height="39.8"/>
				<rect x="304.8" y="236.4" class="st1" width="6.1" height="39.8"/>
				<rect x="300" y="236.4" class="st0" width="4.7" height="39.8"/>
				<rect x="331.2" y="237.3" class="st4" width="9.5" height="38.8"/>
				<rect x="340.7" y="237.3" class="st0" width="4.7" height="38.8"/>
				<rect x="310.9" y="237.3" class="st0" width="6.3" height="38.8"/>
				<rect x="317.2" y="237.3" class="st3" width="3.2" height="38.8"/>
				<rect x="295.3" y="239.2" class="st2" width="9.5" height="37"/>
				<rect x="245.1" y="236.4" class="st4" width="6.1" height="39.8"/>
				<rect x="240.4" y="236.4" class="st1" width="4.7" height="39.8"/>
				<rect x="251.2" y="237.3" class="st0" width="9.5" height="38.8"/>
				<rect x="260.7" y="237.3" class="st4" width="4.7" height="38.8"/>
				<rect x="230.9" y="237.3" class="st4" width="6.3" height="38.8"/>
				<rect x="237.2" y="237.3" class="st5" width="3.2" height="38.8"/>
			</g>
			<g>
				<rect x="301.4" y="293.1" class="st1" width="4.7" height="39.8"/>
				<rect x="306.1" y="293.1" class="st0" width="4.7" height="39.8"/>
				<rect x="291.9" y="293.1" class="st1" width="9.5" height="37"/>
				<rect x="281.1" y="293.1" class="st3" width="6.1" height="39.8"/>
				<rect x="287.2" y="293.1" class="st4" width="4.7" height="39.8"/>
				<rect x="245.1" y="293.1" class="st1" width="6.1" height="39.8"/>
				<rect x="251.2" y="293.1" class="st4" width="4.7" height="39.8"/>
				<rect x="265.5" y="293.1" class="st1" width="6.1" height="39.8"/>
				<rect x="271.6" y="293.1" class="st0" width="4.7" height="39.8"/>
				<rect x="235.6" y="293.1" class="st4" width="9.5" height="38.8"/>
				<rect x="230.9" y="293.1" class="st0" width="4.7" height="38.8"/>
				<rect x="259.1" y="293.1" class="st0" width="6.3" height="38.8"/>
				<rect x="256" y="293.1" class="st3" width="3.2" height="38.8"/>
				<rect x="271.6" y="293.1" class="st2" width="9.5" height="37"/>
				<rect x="325.1" y="293.1" class="st4" width="6.1" height="39.8"/>
				<rect x="331.2" y="293.1" class="st1" width="4.7" height="39.8"/>
				<rect x="315.6" y="293.1" class="st0" width="9.5" height="38.8"/>
				<rect x="310.9" y="293.1" class="st4" width="4.7" height="38.8"/>
				<rect x="339.1" y="293.1" class="st4" width="6.3" height="38.8"/>
				<rect x="336" y="293.1" class="st5" width="3.2" height="38.8"/>
			</g>
			<g>
				<rect x="270.2" y="349.8" class="st1" width="4.7" height="39.8"/>
				<rect x="265.5" y="349.8" class="st0" width="4.7" height="39.8"/>
				<rect x="274.9" y="349.8" class="st1" width="9.5" height="37"/>
				<rect x="289.2" y="349.8" class="st3" width="6.1" height="39.8"/>
				<rect x="284.4" y="349.8" class="st4" width="4.7" height="39.8"/>
				<rect x="325.1" y="349.8" class="st1" width="6.1" height="39.8"/>
				<rect x="320.4" y="349.8" class="st4" width="4.7" height="39.8"/>
				<rect x="304.8" y="349.8" class="st1" width="6.1" height="39.8"/>
				<rect x="300" y="349.8" class="st0" width="4.7" height="39.8"/>
				<rect x="331.2" y="349.8" class="st4" width="9.5" height="38.8"/>
				<rect x="340.7" y="349.8" class="st0" width="4.7" height="38.8"/>
				<rect x="310.9" y="349.8" class="st0" width="6.3" height="38.8"/>
				<rect x="317.2" y="349.8" class="st3" width="3.2" height="38.8"/>
				<rect x="295.3" y="349.8" class="st2" width="9.5" height="37"/>
				<rect x="245.1" y="349.8" class="st4" width="6.1" height="39.8"/>
				<rect x="240.4" y="349.8" class="st1" width="4.7" height="39.8"/>
				<rect x="251.2" y="349.8" class="st0" width="9.5" height="38.8"/>
				<rect x="260.7" y="349.8" class="st4" width="4.7" height="38.8"/>
				<rect x="230.9" y="349.8" class="st4" width="6.3" height="38.8"/>
				<rect x="237.2" y="349.8" class="st5" width="3.2" height="38.8"/>
			</g>
		</g>
	</g>
</g>
<g id="Background_Simple" class="st6">
	<g class="st7">
		<path class="st8" d="M434,135.9c31.3,61.9,23.4,120.8-33.7,155.1c-39.1,23.4-82.5-13.8-107.5-2.4c-30.5,13.9-11.2,73.4-52.8,98.8
			C193.1,416,126.8,401.7,87.7,362C44,317.6,50.3,242.3,76,216.4c24.7-24.9,95.7-11.4,126.5-28.2c29.1-15.8,27.2-64.5,75.4-103.9
			C309.7,58.3,392.4,53.3,434,135.9z"/>
		<path class="st9" d="M434,135.9c31.3,61.9,23.4,120.8-33.7,155.1c-39.1,23.4-82.5-13.8-107.5-2.4c-30.5,13.9-11.2,73.4-52.8,98.8
			C193.1,416,126.8,401.7,87.7,362C44,317.6,50.3,242.3,76,216.4c24.7-24.9,95.7-11.4,126.5-28.2c29.1-15.8,27.2-64.5,75.4-103.9
			C309.7,58.3,392.4,53.3,434,135.9z"/>
	</g>
</g>
<g id="Shadow">
	<ellipse id="_x3C_Path_x3E__1_" class="st10" cx="253.7" cy="435.7" rx="231.5" ry="11.3"/>
</g>
<g id="Character_2">
	<g>
		<g>
			<path class="st11" d="M449.7,353h6.5l11.1,75.3c0.3,1.9-1.2,2.7-3.2,2.7l0,0c-1.6,0-2.9-0.2-3.2-1.8L449.7,353z"/>
			<path class="st12" d="M449.7,353h6.5l11.1,75.3c0.3,1.9-1.2,2.7-3.2,2.7l0,0c-1.6,0-2.9-0.2-3.2-1.8L449.7,353z"/>
			<path class="st11" d="M429.2,353h6.5l5.6,75.5c0.1,1.9-1.3,2.5-3.2,2.5l0,0c-1.7,0-3.1-0.3-3.2-2L429.2,353z"/>
			<path class="st12" d="M429.2,353h6.5l5.6,75.5c0.1,1.9-1.3,2.5-3.2,2.5l0,0c-1.7,0-3.1-0.3-3.2-2L429.2,353z"/>
			<path class="st11" d="M413.9,353h-6.5l-5.6,75.5c-0.1,1.9,1.3,2.5,3.2,2.5l0,0c1.7,0,3.1-0.3,3.2-2L413.9,353z"/>
			<path class="st12" d="M413.9,353h-6.5l-5.6,75.5c-0.1,1.9,1.3,2.5,3.2,2.5l0,0c1.7,0,3.1-0.3,3.2-2L413.9,353z"/>
			<path class="st11" d="M393.4,353H387l-11.1,75.3c-0.3,1.9,1.2,2.7,3.2,2.7l0,0c1.6,0,2.9-0.2,3.2-1.8L393.4,353z"/>
			<path class="st12" d="M393.4,353H387l-11.1,75.3c-0.3,1.9,1.2,2.7,3.2,2.7l0,0c1.6,0,2.9-0.2,3.2-1.8L393.4,353z"/>
			<path class="st11" d="M438.9,266.1l-26.9,82.1h58.9l10.2-86.5h-36.1C442.2,261.7,439.7,263.5,438.9,266.1z"/>
			<path class="st12" d="M438.9,266.1l-26.9,82.1h58.9l10.2-86.5h-36.1C442.2,261.7,439.7,263.5,438.9,266.1z"/>
			<g>
				<path class="st11" d="M429.6,341.6h-58.3c-2.7,0-4.9,2.2-4.9,4.9v3.4c0,2.7,2.2,4.9,4.9,4.9h58.3V341.6z"/>
				<path class="st13" d="M429.6,341.6h-58.3c-2.7,0-4.9,2.2-4.9,4.9v3.4c0,2.7,2.2,4.9,4.9,4.9h58.3V341.6z"/>
			</g>
			<g>
				<path class="st11" d="M476.1,266.5l-7.6,66c-0.6,5.2-5,9.2-10.3,9.2h-40.6c-2.7,0-4.9,2.2-4.9,4.9v3.4c0,2.7,2.2,4.9,4.9,4.9
					h49.2c5.3,0,9.8-4,10.3-9.3l8.3-83.8h-3.9C478.7,261.7,476.4,263.8,476.1,266.5z"/>
				<path class="st14" d="M476.1,266.5l-7.6,66c-0.6,5.2-5,9.2-10.3,9.2h-40.6c-2.7,0-4.9,2.2-4.9,4.9v3.4c0,2.7,2.2,4.9,4.9,4.9
					h49.2c5.3,0,9.8-4,10.3-9.3l8.3-83.8h-3.9C478.7,261.7,476.4,263.8,476.1,266.5z"/>
			</g>
		</g>
		<g>
			<g>
				<g>
					<polygon class="st15" points="381.4,405.3 382.3,420.7 373.6,421.3 371.5,406.7 					"/>
					<g>
						<path class="st8" d="M369.9,422.2c-1.1,0.1-2.3-0.1-2.7-0.5c-0.2-0.3-0.2-0.6,0-0.9c0.1-0.3,0.4-0.4,0.6-0.5
							c1.5-0.5,4.7,1.1,4.9,1.2c0.1,0,0.1,0.1,0.1,0.2c0,0.1-0.1,0.2-0.2,0.2C371.8,422,370.8,422.1,369.9,422.2z M368.4,420.5
							c-0.1,0-0.3,0-0.4,0.1c-0.2,0-0.3,0.2-0.4,0.3c-0.1,0.3-0.1,0.4,0,0.5c0.4,0.6,2.7,0.4,4.4,0.1
							C370.8,421,369.6,420.6,368.4,420.5z"/>
						<path class="st8" d="M372.6,421.8C372.6,421.8,372.6,421.8,372.6,421.8c-1.2-0.4-3.5-2.2-3.4-3.2c0-0.2,0.2-0.6,0.7-0.6
							c0.4-0.1,0.9,0,1.2,0.3c1.2,0.9,1.6,3.3,1.6,3.4c0,0.1,0,0.1-0.1,0.2C372.7,421.8,372.7,421.8,372.6,421.8z M370.2,418.3h-0.1
							c-0.4,0.1-0.4,0.2-0.4,0.3c0,0.6,1.5,2,2.6,2.6c-0.2-1-0.6-1.9-1.4-2.7C370.7,418.3,370.5,418.2,370.2,418.3L370.2,418.3z"/>
						<path class="st11" d="M373.5,420.4l9.8-0.6c0.4,0,0.7,0.2,0.8,0.6l2.3,7.9c0.2,0.7-0.2,1.4-0.9,1.6c-0.1,0-0.2,0-0.3,0
							c-3.5,0.2-6.7,0.2-11.1,0.4c-5.2,0.3-3.8,0.9-9.9,1.3c-3.7,0.3-4.6-3.9-3.1-4.2c7.1-1.3,7.7-3.6,10.3-6.3
							C372,420.8,372.7,420.5,373.5,420.4z"/>
					</g>
					<polygon class="st16" points="371.5,406.7 372.6,414 381.9,413.3 381.4,405.3 381.4,405.3 					"/>
				</g>
				<g>
					<path class="st8" d="M417.4,309c0,0-48.7,7.1-55.2,23.1c-6.5,16,7.6,75.6,7.6,75.6l13.3-1.1c0,0-0.1-36.7-2.8-64l37.1-1.8
						l34-34.6L417.4,309z"/>
					<path class="st17" d="M417.4,309c0,0-48.7,7.1-55.2,23.1c-6.5,16,7.6,75.6,7.6,75.6l13.3-1.1c0,0-0.1-36.7-2.8-64l37.1-1.8
						l34-34.6L417.4,309z"/>
				</g>
				<polygon class="st8" points="368.9,406.9 384,405.3 384,409.4 369.8,410.6 				"/>
			</g>
			<g>
				<g>
					<polygon class="st15" points="414.5,407 415.3,422.4 406.7,423.1 404.6,408.4 					"/>
					<g>
						<path class="st8" d="M403,423.9c-1.1,0.1-2.3-0.1-2.7-0.5c-0.2-0.3-0.2-0.6,0-0.9c0.1-0.3,0.4-0.4,0.6-0.5
							c1.5-0.5,4.7,1.1,4.9,1.2c0.1,0,0.1,0.1,0.1,0.2c0,0.1-0.1,0.2-0.2,0.2C404.8,423.7,403.9,423.9,403,423.9z M401.5,422.3
							c-0.1,0-0.3,0-0.4,0.1c-0.2,0-0.3,0.2-0.4,0.3c-0.1,0.3-0.1,0.4,0,0.5c0.4,0.6,2.7,0.4,4.4,0.1
							C403.9,422.7,402.7,422.4,401.5,422.3z"/>
						<path class="st8" d="M405.7,423.5C405.7,423.5,405.6,423.5,405.7,423.5c-1.2-0.4-3.5-2.2-3.4-3.2c0-0.2,0.2-0.6,0.7-0.6
							c0.4-0.1,0.9,0,1.2,0.3c1.2,0.9,1.6,3.3,1.6,3.4c0,0.1,0,0.1-0.1,0.2C405.8,423.5,405.7,423.5,405.7,423.5z M403.3,420h-0.1
							c-0.4,0.1-0.4,0.2-0.4,0.3c0,0.6,1.5,2,2.6,2.6c-0.2-1-0.6-1.9-1.4-2.7C403.8,420.1,403.5,420,403.3,420L403.3,420z"/>
						<path class="st11" d="M406.6,422.2l9.8-0.6c0.4,0,0.7,0.2,0.8,0.6l2.3,7.9c0.2,0.7-0.2,1.4-0.9,1.6c-0.1,0-0.2,0-0.3,0
							c-3.5,0.2-6.7,0.2-11.1,0.4c-5.2,0.3-3.8,0.9-9.9,1.3c-3.7,0.3-4.6-3.9-3.1-4.2c7.1-1.3,7.7-3.6,10.3-6.3
							C405,422.5,405.8,422.2,406.6,422.2z"/>
					</g>
					<polygon class="st16" points="415,415.5 414.5,407 414.5,407 404.6,408.4 405.7,416.2 					"/>
				</g>
				<g>
					<path class="st8" d="M464.1,308.3c0,0,10.2,33-10.2,33.7c-20.3,0.7-47.1,0-47.1,0s9.5,26,9.5,67.8l-12.8,1.1
						c0,0-21.5-70.7-16.3-80.1c6.9-12.7,54.8-22.5,54.8-22.5L464.1,308.3L464.1,308.3z"/>
					<path class="st18" d="M464.1,308.3c0,0,10.2,33-10.2,33.7c-20.3,0.7-47.1,0-47.1,0s9.5,26,9.5,67.8l-12.8,1.1
						c0,0-21.5-70.7-16.3-80.1c6.9-12.7,54.8-22.5,54.8-22.5L464.1,308.3L464.1,308.3z"/>
				</g>
				<polygon class="st8" points="402.1,409.2 403.1,413.3 417.3,412.1 417.3,408.2 				"/>
			</g>
			<g>
				<g>
					<path class="st8" d="M432.2,229.4c0,0-12.4-2.7-18.1,16.1c-3.4,11.2-2.8,26.6-2.8,26.6l-20.5,0.4l-2.5,8.3
						c0,0,26.5,0.4,33.4-0.6C428.4,279.4,432.2,229.4,432.2,229.4z"/>
				</g>
				<g>
					<path class="st8" d="M418.4,308.7c0,0-6.5-82,13.4-82s21.8,0,28.6,0c6.9,0,10.9,9.4,9.4,26.5s-2.9,59.1-2.9,59.1L418.4,308.7z"
						/>
					<path class="st12" d="M418.4,308.7c0,0-6.5-82,13.4-82s21.8,0,28.6,0c6.9,0,10.9,9.4,9.4,26.5s-2.9,59.1-2.9,59.1L418.4,308.7z
						"/>
				</g>
				<path class="st19" d="M387.2,270.7l2.3,0.3c1,0.1,1.9,0.7,2.5,1.6l3.2,5.4c0.5,0.9,0.7,1.9,0.4,2.9l-0.5,2
					c-0.6,2.3-3,3.5-5.2,2.6l-3.8-1.6c-1.4-0.6-2.5-1.7-3-3.1l-0.9-2.5c-0.3-0.9-0.3-1.8,0-2.7l0.8-2.3
					C383.6,271.6,385.4,270.5,387.2,270.7z"/>
				<g>
					<g>
						<polygon class="st8" points="388.9,272.2 396,288.5 406.8,292.7 421.4,285.4 421.3,268.9 413.8,267.8 407.6,270.9 
							404.3,274.1 399.9,268.5 394.2,267.8 390.5,269.5 						"/>
						<polygon class="st20" points="388.9,272.2 396,288.5 406.8,292.7 421.4,285.4 421.3,268.9 413.8,267.8 407.6,270.9 
							404.3,274.1 399.9,268.5 394.2,267.8 390.5,269.5 						"/>
					</g>
					<polygon class="st21" points="408.8,291.7 406.6,271.8 404.3,274.1 401.2,270.2 404.9,291.9 406.8,292.7 					"/>
					<g>
						<path class="st8" d="M388.4,269.5c0,0,10-10.2,16.1,2.7c0,0,10.4-12.1,16.8-3.3l-0.8,3.3c0,0-3.3-8-16.2,3.9
							c0,0-6.5-12.6-15.4-3.9L388.4,269.5z"/>
						<path class="st22" d="M388.4,269.5c0,0,10-10.2,16.1,2.7c0,0,10.4-12.1,16.8-3.3l-0.8,3.3c0,0-3.3-8-16.2,3.9
							c0,0-6.5-12.6-15.4-3.9L388.4,269.5z"/>
					</g>
				</g>
				<path class="st19" d="M440.1,273.6h-11l-2.9-2.7c-1.2-1.1-2.9-1.6-4.6-1.3l-1.3,0.3c-0.9,0.2-1.8,0.1-2.7-0.2l0,0
					c-2.1-0.7-4.4,0-5.8,1.8l-0.2,0.3c-1.3,1.8-1.4,4.1-0.2,6l2.8,4.2c1.2,1.8,3.5,2.7,5.6,2.2l7.7-2l13.2,1.8L440.1,273.6z"/>
				<g>
					<path class="st8" d="M458.7,246.7c-0.9-5.1-4.4-19.9,5.1-19.9s11,14.5,11.5,23.5c0.5,9,2.2,36.4-4.1,36.4
						c-6.3,0-33.2-2.2-33.2-2.2l0.3-12l23.7-1.9C462,270.6,459.8,253.2,458.7,246.7z"/>
					<path class="st14" d="M458.7,246.7c-0.9-5.1-4.4-19.9,5.1-19.9s11,14.5,11.5,23.5c0.5,9,2.2,36.4-4.1,36.4
						c-6.3,0-33.2-2.2-33.2-2.2l0.3-12l23.7-1.9C462,270.6,459.8,253.2,458.7,246.7z"/>
				</g>
				<g>
					<path class="st19" d="M433.6,227.2l0.2,0.7l6,3.8l11.6-4.4l0.1-0.1c-4.5-4.5-2.8-12.9-1.3-19.6l-5.6,4.6l-7.6,6.4
						c0.2,1,0.4,2,0.5,3.1C438,225,437,226.1,433.6,227.2z"/>
					<path class="st11" d="M426.7,194.2c0,0-6.5,4.4-4.9,7c2.6,4.3,6.3-2.9,6.3-2.9L426.7,194.2z"/>
					<path class="st21" d="M447.4,218.4c0.2-1.3,0.2-2.7,0.1-4l-10.1,5.9c0.1,0.5,0.1,1,0.2,1.5c0.1,1.3,0.1,2.2-0.2,3
						C441.1,224.3,446.3,222.1,447.4,218.4z"/>
					<path class="st19" d="M449.7,197.3c1.2,9.1,2.3,14.4-1.4,20c-5.5,8.4-17.3,6.7-21.1-1.9c-3.5-7.7-4.7-21.3,3.4-26.8
						c5.5-3.9,13.1-2.6,16.9,2.9C448.7,193.3,449.5,195.2,449.7,197.3z"/>
					<path class="st11" d="M436.5,205.2c0.1,0.7-0.1,1.4-0.6,1.5c-0.5,0.1-1-0.4-1.2-1.2c-0.2-0.7,0.1-1.4,0.6-1.5
						C435.8,203.9,436.4,204.5,436.5,205.2z"/>
					<path class="st11" d="M427.9,206.8c0.1,0.7-0.1,1.4-0.6,1.5c-0.5,0.1-1-0.4-1.2-1.2c-0.2-0.7,0.1-1.4,0.6-1.5
						C427.2,205.6,427.8,206.1,427.9,206.8z"/>
					<path class="st23" d="M431.3,204.4c-0.4,2.1-1,4.1-1.9,6.1c1,0.5,2.2,0.5,3.2,0L431.3,204.4z"/>
					<path class="st11" d="M438.4,199.8c0.1,0,0.1,0,0.2-0.1c0.2-0.1,0.2-0.4,0.1-0.6c0,0,0,0,0,0c-0.8-1.1-2.1-1.8-3.5-1.8
						c-0.2,0-0.4,0.2-0.4,0.5v0c0,0.2,0.2,0.4,0.5,0.4c1.1,0,2.1,0.5,2.8,1.5C438.1,199.8,438.3,199.8,438.4,199.8z"/>
					<path class="st11" d="M423.9,201.7c0.1,0,0.3-0.1,0.3-0.2c0.5-1,1.5-1.7,2.6-1.9c0.2,0,0.4-0.2,0.4-0.5l0,0
						c0-0.2-0.2-0.4-0.5-0.4l0,0c-1.4,0.2-2.6,1.1-3.3,2.3c-0.1,0.2-0.1,0.5,0.1,0.6C423.8,201.7,423.9,201.7,423.9,201.7z"/>
					<path class="st11" d="M437.9,212.5c0.3-0.3,0.7-0.7,0.9-1.1c0.1-0.1,0.1-0.3-0.1-0.4c0,0,0,0,0,0c-0.1-0.1-0.3-0.1-0.4,0.1
						c-1.2,1.8-3.2,3-5.4,3.1c-0.1,0-0.3,0.1-0.3,0.2c0,0.1,0.1,0.3,0.2,0.3C434.8,214.6,436.6,213.9,437.9,212.5z"/>
					<path class="st11" d="M446,184c0,0,1.9-10.4-2.5-9.9C439.1,174.5,446,184,446,184z"/>
					<g>
						<path class="st11" d="M440.1,201.1c-0.8-1-2-1.6-3.3-1.6c-2.2,0-4.1,1.7-4.3,3.9l-2.4,0.6c-0.6-1.6-2.2-2.8-4-2.8
							c-2.4,0-4.3,1.9-4.3,4.3s1.9,4.3,4.3,4.3s4.3-1.9,4.3-4.3c0-0.1,0-0.3,0-0.4l2.1-0.5c0.3,2,2.1,3.6,4.3,3.6
							c2.4,0,4.3-1.9,4.3-4.3c0-0.6-0.1-1.2-0.4-1.7c4.4-1.7,10.5-3.6,11.7-2.9l0.6-1C451,196.9,442.6,200.1,440.1,201.1z
							 M426.1,208.6c-1.8,0-3.2-1.4-3.2-3.2c0-1.8,1.4-3.2,3.2-3.2c1.8,0,3.2,1.4,3.2,3.2C429.3,207.2,427.8,208.6,426.1,208.6z
							 M436.8,207c-1.8,0-3.2-1.4-3.2-3.2c0-1.8,1.4-3.2,3.2-3.2s3.2,1.4,3.2,3.2C439.9,205.6,438.5,207,436.8,207z"/>
						<path class="st12" d="M440.1,201.1c-0.8-1-2-1.6-3.3-1.6c-2.2,0-4.1,1.7-4.3,3.9l-2.4,0.6c-0.6-1.6-2.2-2.8-4-2.8
							c-2.4,0-4.3,1.9-4.3,4.3s1.9,4.3,4.3,4.3s4.3-1.9,4.3-4.3c0-0.1,0-0.3,0-0.4l2.1-0.5c0.3,2,2.1,3.6,4.3,3.6
							c2.4,0,4.3-1.9,4.3-4.3c0-0.6-0.1-1.2-0.4-1.7c4.4-1.7,10.5-3.6,11.7-2.9l0.6-1C451,196.9,442.6,200.1,440.1,201.1z
							 M426.1,208.6c-1.8,0-3.2-1.4-3.2-3.2c0-1.8,1.4-3.2,3.2-3.2c1.8,0,3.2,1.4,3.2,3.2C429.3,207.2,427.8,208.6,426.1,208.6z
							 M436.8,207c-1.8,0-3.2-1.4-3.2-3.2c0-1.8,1.4-3.2,3.2-3.2s3.2,1.4,3.2,3.2C439.9,205.6,438.5,207,436.8,207z"/>
					</g>
					<path class="st11" d="M437.7,190.3c0,0-14.5,10.2-17.6,6c-3.1-4.2,3.4-4.6,3.4-4.6s-5.5-3.9-2.6-6.9c2.9-3.1,6.4,0,6.4,0
						s13.3-11.6,17.8-2.9c0,0,10.1-2,10.8,6.1c0.7,8.1,0,9.4,0,9.4s5.3,0.7,4.6,2.5c-0.8,1.8-4.6,0.4-4.6,0.4s6.3,4.8,3.4,5.4
						c-2.9,0.6-10.3-0.9-12.1-7.1c-1.8-6.2,0.3-7,0.3-7S430.2,198.8,437.7,190.3z"/>
					<path class="st19" d="M454.7,205c-0.5,2.2-1.8,4.2-3.6,5.6c-2.3,1.7-4.1-0.4-3.9-3.3c0.1-2.6,1.5-6.7,4-7.2
						C453.8,199.6,455.4,202.2,454.7,205z"/>
				</g>
				<path class="st8" d="M434.9,226.7c0,0-1.1,3,5,3.1c6.1,0.1,11.8-3.6,11.8-3.6s2.5-0.8,3.2,0.5c0,0-6.3,6.1-15,5.9
					c-8.7-0.2-7.3-6-7.3-6S434.2,226.2,434.9,226.7z"/>
			</g>
		</g>
	</g>
</g>
<g id="Bookshelf">
	<g>
		<g>
			<g>
				<rect x="95.1" y="80.2" class="st24" width="140.5" height="354"/>
				<rect x="95.1" y="80.2" class="st12" width="140.5" height="354"/>
			</g>
			<g>
				<path class="st24" d="M235.6,77.1v360.2h25.9V77.1H235.6z"/>
				<path class="st14" d="M235.6,77.1v360.2h25.9V77.1H235.6z"/>
			</g>
			<g>
				<path class="st24" d="M70.5,77.1v360.2h25.9V77.1H70.5z"/>
				<path class="st25" d="M70.5,77.1v360.2h25.9V77.1H70.5z"/>
			</g>
			<g>
				<path class="st24" d="M66.1,77.1v360.2h172.7V77.1H66.1z M232.5,83.3v64.6H72.3V83.3H232.5z M72.3,289.5v-64.6h160.2v64.6H72.3z
					 M232.5,295.7v64.6H72.3v-64.6H232.5z M72.3,218.7v-64.6h160.2v64.6H72.3z M72.3,431.1v-64.6h160.2v64.6H72.3z"/>
				<path class="st26" d="M66.1,77.1v360.2h172.7V77.1H66.1z M232.5,83.3v64.6H72.3V83.3H232.5z M72.3,289.5v-64.6h160.2v64.6H72.3z
					 M232.5,295.7v64.6H72.3v-64.6H232.5z M72.3,218.7v-64.6h160.2v64.6H72.3z M72.3,431.1v-64.6h160.2v64.6H72.3z"/>
			</g>
		</g>
		<g>
			<g>
				<g>
					<rect x="173.6" y="97.8" class="st8" width="6" height="50.1"/>
					<rect x="173.6" y="97.8" class="st13" width="6" height="50.1"/>
					<rect x="179.6" y="97.8" class="st8" width="6" height="50.1"/>
					<rect x="179.6" y="97.8" class="st25" width="6" height="50.1"/>
				</g>
				<g>
					<rect x="161.7" y="101.3" class="st8" width="11.9" height="46.6"/>
					<rect x="161.7" y="101.3" class="st26" width="11.9" height="46.6"/>
				</g>
				<g>
					<rect x="148" y="97.8" class="st8" width="7.7" height="50.1"/>
					<g>
						<rect x="155.7" y="97.8" class="st8" width="6" height="50.1"/>
						<rect x="155.7" y="97.8" class="st27" width="6" height="50.1"/>
					</g>
				</g>
				<g>
					<rect x="102.7" y="97.8" class="st8" width="7.7" height="50.1"/>
					<rect x="102.7" y="97.8" class="st27" width="7.7" height="50.1"/>
					<rect x="110.4" y="97.8" class="st8" width="6" height="50.1"/>
					<rect x="110.4" y="97.8" class="st26" width="6" height="50.1"/>
				</g>
				<g>
					<g>
						<rect x="128.3" y="97.8" class="st8" width="7.7" height="50.1"/>
						<rect x="128.3" y="97.8" class="st26" width="7.7" height="50.1"/>
					</g>
					<g>
						<rect x="136.1" y="97.8" class="st8" width="6" height="50.1"/>
						<rect x="136.1" y="97.8" class="st20" width="6" height="50.1"/>
					</g>
				</g>
				<g>
					<rect x="90.8" y="98.9" class="st8" width="11.9" height="48.9"/>
					<rect x="90.8" y="98.9" class="st13" width="11.9" height="48.9"/>
					<rect x="84.8" y="98.9" class="st8" width="6" height="48.9"/>
					<rect x="84.8" y="98.9" class="st26" width="6" height="48.9"/>
				</g>
				<g>
					<g>
						<rect x="120.4" y="98.9" class="st8" width="8" height="48.9"/>
						<rect x="120.4" y="98.9" class="st13" width="8" height="48.9"/>
					</g>
					<g>
						<rect x="116.4" y="98.9" class="st8" width="4" height="48.9"/>
						<rect x="116.4" y="98.9" class="st14" width="4" height="48.9"/>
					</g>
				</g>
				<g>
					<rect x="136.1" y="101.3" class="st8" width="11.9" height="46.6"/>
					<rect x="136.1" y="101.3" class="st13" width="11.9" height="46.6"/>
				</g>
			</g>
			<g>
				<rect x="203.5" y="97.8" class="st8" width="7.7" height="50.1"/>
				<rect x="203.5" y="97.8" class="st14" width="7.7" height="50.1"/>
				<rect x="211.2" y="97.8" class="st8" width="6" height="50.1"/>
				<rect x="211.2" y="97.8" class="st12" width="6" height="50.1"/>
			</g>
			<g>
				<rect x="191.6" y="98.9" class="st8" width="11.9" height="48.9"/>
				<rect x="191.6" y="98.9" class="st13" width="11.9" height="48.9"/>
				<rect x="185.6" y="98.9" class="st8" width="6" height="48.9"/>
				<rect x="185.6" y="98.9" class="st26" width="6" height="48.9"/>
			</g>
			<g>
				<g>
					<rect x="221.2" y="98.9" class="st8" width="8" height="48.9"/>
					<rect x="221.2" y="98.9" class="st13" width="8" height="48.9"/>
				</g>
				<g>
					<rect x="217.2" y="98.9" class="st8" width="4" height="48.9"/>
					<rect x="217.2" y="98.9" class="st26" width="4" height="48.9"/>
				</g>
			</g>
		</g>
		<g>
			<g>
				<g>
					<rect x="136.5" y="168.7" class="st8" width="5.8" height="50"/>
					<rect x="136.5" y="168.7" class="st13" width="5.8" height="50"/>
					<rect x="130.7" y="168.7" class="st8" width="5.8" height="50"/>
					<rect x="130.7" y="168.7" class="st25" width="5.8" height="50"/>
				</g>
				<g>
					<rect x="142.3" y="172.2" class="st8" width="11.7" height="46.5"/>
					<rect x="142.3" y="172.2" class="st26" width="11.7" height="46.5"/>
				</g>
				<g>
					<rect x="159.8" y="168.7" class="st8" width="7.5" height="50"/>
					<g>
						<rect x="154" y="168.7" class="st8" width="5.8" height="50"/>
						<rect x="154" y="168.7" class="st20" width="5.8" height="50"/>
					</g>
				</g>
				<g>
					<rect x="204.1" y="168.7" class="st8" width="7.5" height="50"/>
					<rect x="204.1" y="168.7" class="st20" width="7.5" height="50"/>
					<rect x="198.2" y="168.7" class="st8" width="5.8" height="50"/>
					<rect x="198.2" y="168.7" class="st26" width="5.8" height="50"/>
				</g>
				<g>
					<g>
						<rect x="179" y="168.7" class="st8" width="7.5" height="50"/>
						<rect x="179" y="168.7" class="st26" width="7.5" height="50"/>
					</g>
					<g>
						<rect x="173.2" y="168.7" class="st8" width="5.8" height="50"/>
						<rect x="173.2" y="168.7" class="st20" width="5.8" height="50"/>
					</g>
				</g>
				<g>
					<rect x="211.6" y="169.9" class="st8" width="11.7" height="48.8"/>
					<rect x="211.6" y="169.9" class="st13" width="11.7" height="48.8"/>
					<rect x="223.3" y="169.9" class="st8" width="5.8" height="48.8"/>
					<rect x="223.3" y="169.9" class="st26" width="5.8" height="48.8"/>
				</g>
				<g>
					<g>
						<rect x="186.6" y="169.9" class="st8" width="7.8" height="48.8"/>
						<rect x="186.6" y="169.9" class="st13" width="7.8" height="48.8"/>
					</g>
					<g>
						<rect x="194.3" y="169.9" class="st8" width="3.9" height="48.8"/>
						<rect x="194.3" y="169.9" class="st14" width="3.9" height="48.8"/>
					</g>
				</g>
				<g>
					<rect x="167.4" y="172.2" class="st8" width="11.7" height="46.5"/>
					<rect x="167.4" y="172.2" class="st13" width="11.7" height="46.5"/>
				</g>
			</g>
			<g>
				<rect x="105.7" y="168.7" class="st8" width="7.5" height="50"/>
				<rect x="105.7" y="168.7" class="st13" width="7.5" height="50"/>
				<rect x="99.8" y="168.7" class="st8" width="5.8" height="50"/>
				<rect x="99.8" y="168.7" class="st12" width="5.8" height="50"/>
			</g>
			<g>
				<rect x="113.2" y="169.9" class="st8" width="11.7" height="48.8"/>
				<rect x="113.2" y="169.9" class="st13" width="11.7" height="48.8"/>
				<rect x="124.9" y="169.9" class="st8" width="5.8" height="48.8"/>
				<rect x="124.9" y="169.9" class="st26" width="5.8" height="48.8"/>
			</g>
			<g>
				<g>
					<rect x="88.2" y="169.9" class="st8" width="7.8" height="48.8"/>
					<rect x="88.2" y="169.9" class="st13" width="7.8" height="48.8"/>
				</g>
				<g>
					<rect x="95.9" y="169.9" class="st8" width="3.9" height="48.8"/>
					<rect x="95.9" y="169.9" class="st26" width="3.9" height="48.8"/>
				</g>
			</g>
		</g>
		<g>
			<g>
				<g>
					<rect x="174.9" y="310.8" class="st8" width="5.8" height="49.5"/>
					<rect x="174.9" y="310.8" class="st13" width="5.8" height="49.5"/>
					<rect x="180.7" y="310.8" class="st8" width="5.8" height="49.5"/>
					<rect x="180.7" y="310.8" class="st25" width="5.8" height="49.5"/>
				</g>
				<g>
					<rect x="163.2" y="314.3" class="st8" width="11.7" height="46"/>
					<rect x="163.2" y="314.3" class="st26" width="11.7" height="46"/>
				</g>
				<g>
					<rect x="149.8" y="310.8" class="st8" width="7.5" height="49.5"/>
					<g>
						<rect x="157.4" y="310.8" class="st8" width="5.8" height="49.5"/>
						<rect x="157.4" y="310.8" class="st26" width="5.8" height="49.5"/>
					</g>
				</g>
				<g>
					<rect x="105.6" y="310.8" class="st8" width="7.5" height="49.5"/>
					<rect x="105.6" y="310.8" class="st14" width="7.5" height="49.5"/>
					<rect x="113.2" y="310.8" class="st8" width="5.8" height="49.5"/>
					<rect x="113.2" y="310.8" class="st26" width="5.8" height="49.5"/>
				</g>
				<g>
					<g>
						<rect x="130.6" y="310.8" class="st8" width="7.5" height="49.5"/>
						<rect x="130.6" y="310.8" class="st26" width="7.5" height="49.5"/>
					</g>
					<g>
						<rect x="138.2" y="310.8" class="st8" width="5.8" height="49.5"/>
						<rect x="138.2" y="310.8" class="st20" width="5.8" height="49.5"/>
					</g>
				</g>
				<g>
					<rect x="93.9" y="312" class="st8" width="11.7" height="48.3"/>
					<rect x="93.9" y="312" class="st13" width="11.7" height="48.3"/>
					<rect x="88.1" y="312" class="st8" width="5.8" height="48.3"/>
					<rect x="88.1" y="312" class="st26" width="5.8" height="48.3"/>
				</g>
				<g>
					<g>
						<rect x="122.9" y="312" class="st8" width="7.8" height="48.3"/>
						<rect x="122.9" y="312" class="st13" width="7.8" height="48.3"/>
					</g>
					<g>
						<rect x="119" y="312" class="st8" width="3.9" height="48.3"/>
						<rect x="119" y="312" class="st14" width="3.9" height="48.3"/>
					</g>
				</g>
				<g>
					<rect x="138.2" y="314.3" class="st8" width="11.7" height="46"/>
					<rect x="138.2" y="314.3" class="st13" width="11.7" height="46"/>
				</g>
			</g>
			<g>
				<rect x="204" y="310.8" class="st8" width="7.5" height="49.5"/>
				<rect x="204" y="310.8" class="st20" width="7.5" height="49.5"/>
				<rect x="211.6" y="310.8" class="st8" width="5.8" height="49.5"/>
				<rect x="211.6" y="310.8" class="st12" width="5.8" height="49.5"/>
			</g>
			<g>
				<rect x="192.4" y="312" class="st8" width="11.7" height="48.3"/>
				<rect x="192.4" y="312" class="st13" width="11.7" height="48.3"/>
				<rect x="186.5" y="312" class="st8" width="5.8" height="48.3"/>
				<rect x="186.5" y="312" class="st26" width="5.8" height="48.3"/>
			</g>
			<g>
				<g>
					<rect x="221.3" y="312" class="st8" width="7.8" height="48.3"/>
					<rect x="221.3" y="312" class="st13" width="7.8" height="48.3"/>
				</g>
				<g>
					<rect x="217.4" y="312" class="st8" width="3.9" height="48.3"/>
					<rect x="217.4" y="312" class="st26" width="3.9" height="48.3"/>
				</g>
			</g>
		</g>
		<g>
			<g>
				<g>
					<rect x="174.9" y="382.2" class="st8" width="5.8" height="48.9"/>
					<rect x="174.9" y="382.2" class="st13" width="5.8" height="48.9"/>
					<rect x="180.7" y="382.2" class="st8" width="5.8" height="48.9"/>
					<rect x="180.7" y="382.2" class="st25" width="5.8" height="48.9"/>
				</g>
				<g>
					<rect x="163.2" y="385.7" class="st8" width="11.7" height="45.4"/>
					<rect x="163.2" y="385.7" class="st26" width="11.7" height="45.4"/>
				</g>
				<g>
					<rect x="149.9" y="382.2" class="st8" width="7.5" height="48.9"/>
					<g>
						<rect x="157.4" y="382.2" class="st8" width="5.8" height="48.9"/>
						<rect x="157.4" y="382.2" class="st20" width="5.8" height="48.9"/>
					</g>
				</g>
				<g>
					<rect x="105.7" y="382.2" class="st8" width="7.5" height="48.9"/>
					<rect x="105.7" y="382.2" class="st25" width="7.5" height="48.9"/>
					<rect x="113.2" y="382.2" class="st8" width="5.8" height="48.9"/>
					<rect x="113.2" y="382.2" class="st26" width="5.8" height="48.9"/>
				</g>
				<g>
					<g>
						<rect x="130.7" y="382.2" class="st8" width="7.5" height="48.9"/>
						<rect x="130.7" y="382.2" class="st26" width="7.5" height="48.9"/>
					</g>
					<g>
						<rect x="138.2" y="382.2" class="st8" width="5.8" height="48.9"/>
						<rect x="138.2" y="382.2" class="st20" width="5.8" height="48.9"/>
					</g>
				</g>
				<g>
					<rect x="94" y="383.4" class="st8" width="11.7" height="47.7"/>
					<rect x="94" y="383.4" class="st13" width="11.7" height="47.7"/>
					<rect x="88.2" y="383.4" class="st8" width="5.8" height="47.7"/>
					<rect x="88.2" y="383.4" class="st26" width="5.8" height="47.7"/>
				</g>
				<g>
					<g>
						<rect x="122.9" y="383.4" class="st8" width="7.8" height="47.7"/>
						<rect x="122.9" y="383.4" class="st13" width="7.8" height="47.7"/>
					</g>
					<g>
						<rect x="119" y="383.4" class="st8" width="3.9" height="47.7"/>
						<rect x="119" y="383.4" class="st14" width="3.9" height="47.7"/>
					</g>
				</g>
				<g>
					<rect x="138.2" y="385.7" class="st8" width="11.7" height="45.4"/>
					<rect x="138.2" y="385.7" class="st13" width="11.7" height="45.4"/>
				</g>
			</g>
			<g>
				<rect x="204.1" y="382.2" class="st8" width="7.5" height="48.9"/>
				<rect x="204.1" y="382.2" class="st20" width="7.5" height="48.9"/>
				<rect x="211.6" y="382.2" class="st8" width="5.8" height="48.9"/>
				<rect x="211.6" y="382.2" class="st12" width="5.8" height="48.9"/>
			</g>
			<g>
				<rect x="192.4" y="383.4" class="st8" width="11.7" height="47.7"/>
				<rect x="192.4" y="383.4" class="st13" width="11.7" height="47.7"/>
				<rect x="186.6" y="383.4" class="st8" width="5.8" height="47.7"/>
				<rect x="186.6" y="383.4" class="st26" width="5.8" height="47.7"/>
			</g>
			<g>
				<g>
					<rect x="221.3" y="383.4" class="st8" width="7.8" height="47.7"/>
					<rect x="221.3" y="383.4" class="st13" width="7.8" height="47.7"/>
				</g>
				<g>
					<rect x="217.4" y="383.4" class="st8" width="3.9" height="47.7"/>
					<rect x="217.4" y="383.4" class="st26" width="3.9" height="47.7"/>
				</g>
			</g>
		</g>
		<g>
			<g>
				<g>
					<rect x="133.4" y="238.7" class="st8" width="6" height="50.8"/>
					<rect x="133.4" y="238.7" class="st13" width="6" height="50.8"/>
					<rect x="127.4" y="238.7" class="st8" width="6" height="50.8"/>
					<rect x="127.4" y="238.7" class="st25" width="6" height="50.8"/>
				</g>
				<g>
					<rect x="139.4" y="242.3" class="st8" width="12.1" height="47.2"/>
					<rect x="139.4" y="242.3" class="st26" width="12.1" height="47.2"/>
				</g>
				<g>
					<rect x="157.5" y="238.7" class="st8" width="7.8" height="50.8"/>
					<g>
						<rect x="151.5" y="238.7" class="st8" width="6" height="50.8"/>
						<rect x="151.5" y="238.7" class="st20" width="6" height="50.8"/>
					</g>
				</g>
				<g>
					<rect x="203.2" y="238.7" class="st8" width="7.8" height="50.8"/>
					<rect x="203.2" y="238.7" class="st20" width="7.8" height="50.8"/>
					<rect x="197.2" y="238.7" class="st8" width="6" height="50.8"/>
					<rect x="197.2" y="238.7" class="st26" width="6" height="50.8"/>
				</g>
				<g>
					<g>
						<rect x="177.3" y="238.7" class="st8" width="7.8" height="50.8"/>
						<rect x="177.3" y="238.7" class="st26" width="7.8" height="50.8"/>
					</g>
					<g>
						<rect x="171.3" y="238.7" class="st8" width="6" height="50.8"/>
						<rect x="171.3" y="238.7" class="st20" width="6" height="50.8"/>
					</g>
				</g>
				<g>
					<rect x="211" y="239.9" class="st8" width="12.1" height="49.6"/>
					<rect x="211" y="239.9" class="st13" width="12.1" height="49.6"/>
					<rect x="223.1" y="239.9" class="st8" width="6" height="49.6"/>
					<rect x="223.1" y="239.9" class="st26" width="6" height="49.6"/>
				</g>
				<g>
					<g>
						<rect x="185.1" y="239.9" class="st8" width="8" height="49.6"/>
						<rect x="185.1" y="239.9" class="st13" width="8" height="49.6"/>
					</g>
					<g>
						<rect x="193.2" y="239.9" class="st8" width="4" height="49.6"/>
						<rect x="193.2" y="239.9" class="st14" width="4" height="49.6"/>
					</g>
				</g>
				<g>
					<rect x="165.3" y="242.3" class="st8" width="12.1" height="47.2"/>
					<rect x="165.3" y="242.3" class="st13" width="12.1" height="47.2"/>
				</g>
			</g>
			<g>
				<rect x="101.5" y="238.7" class="st8" width="7.8" height="50.8"/>
				<rect x="101.5" y="238.7" class="st12" width="7.8" height="50.8"/>
				<rect x="95.5" y="238.7" class="st8" width="6" height="50.8"/>
				<rect x="95.5" y="238.7" class="st12" width="6" height="50.8"/>
			</g>
			<g>
				<rect x="109.3" y="239.9" class="st8" width="12.1" height="49.6"/>
				<rect x="109.3" y="239.9" class="st13" width="12.1" height="49.6"/>
				<rect x="121.3" y="239.9" class="st8" width="6" height="49.6"/>
				<rect x="121.3" y="239.9" class="st26" width="6" height="49.6"/>
			</g>
			<g>
				<g>
					<rect x="83.4" y="239.9" class="st8" width="8" height="49.6"/>
					<rect x="83.4" y="239.9" class="st13" width="8" height="49.6"/>
				</g>
				<g>
					<rect x="91.4" y="239.9" class="st8" width="4" height="49.6"/>
					<rect x="91.4" y="239.9" class="st26" width="4" height="49.6"/>
				</g>
			</g>
		</g>
	</g>
</g>
<g id="Character_1">
	<g>
		<g>
			<path class="st21" d="M79.1,437.2c2,0.3,3.6-1,3.6-2.9l0-5.7h74.2l0,4.5c0,2,1.6,3.8,3.7,4.1c2,0.3,3.6-1,3.6-2.9l-1.4-282.2
				c0-2-1.6-3.8-3.7-4.1c-2-0.3-3.6,1-3.6,2.9l0,4.5H81.3l0-3.3c0-2-1.6-3.8-3.7-4.1c-2-0.3-3.6,1-3.6,2.9l1.4,282.2
				C75.4,435.1,77,436.9,79.1,437.2z M156.6,369.4H82.4l-0.2-47.8h74.2L156.6,369.4z M81.6,214.6h74.2l0.2,47.8H81.8L81.6,214.6z
				 M156.1,268.1l0.2,47.8H82.1l-0.2-47.8H156.1z M155.6,161.1l0.2,47.8H81.6l-0.2-47.8H155.6z M82.6,422.9l-0.2-47.8h74.2l0.2,47.8
				H82.6z"/>
			<path class="st11" d="M29,437.2c2,0.3,3.8-1,4.1-2.9l1-5.7h74.2l-0.8,4.5c-0.3,2,1,3.8,2.9,4.1c2,0.3,3.8-1,4.1-2.9L163,152.1
				c0.3-2-1-3.8-2.9-4.1c-2-0.3-3.8,1-4.1,2.9l-0.8,4.5H80.9l0.6-3.3c0.3-2-1-3.8-2.9-4.1c-2-0.3-3.8,1-4.1,2.9L26,433.1
				C25.7,435.1,27,436.9,29,437.2z M118.5,369.4H44.3l8.2-47.8h74.2L118.5,369.4z M70.8,214.6H145l-8.2,47.8H62.6L70.8,214.6z
				 M135.8,268.1l-8.2,47.8H53.4l8.2-47.8H135.8z M154.2,161.1l-8.2,47.8H71.8l8.2-47.8H154.2z M35.1,422.9l8.2-47.8h74.2l-8.2,47.8
				H35.1z"/>
			<path class="st12" d="M29,437.2c2,0.3,3.8-1,4.1-2.9l1-5.7h74.2l-0.8,4.5c-0.3,2,1,3.8,2.9,4.1c2,0.3,3.8-1,4.1-2.9L163,152.1
				c0.3-2-1-3.8-2.9-4.1c-2-0.3-3.8,1-4.1,2.9l-0.8,4.5H80.9l0.6-3.3c0.3-2-1-3.8-2.9-4.1c-2-0.3-3.8,1-4.1,2.9L26,433.1
				C25.7,435.1,27,436.9,29,437.2z M118.5,369.4H44.3l8.2-47.8h74.2L118.5,369.4z M70.8,214.6H145l-8.2,47.8H62.6L70.8,214.6z
				 M135.8,268.1l-8.2,47.8H53.4l8.2-47.8H135.8z M154.2,161.1l-8.2,47.8H71.8l8.2-47.8H154.2z M35.1,422.9l8.2-47.8h74.2l-8.2,47.8
				H35.1z"/>
		</g>
		<g>
			<g>
				<g>
					<g>
						<path class="st8" d="M174.1,172.2h-24.8c-1.3,0-2.3-1-2.3-2.3l0,0V139l0,0c0,1.3,1,2.3,2.3,2.3h24.8V172.2z"/>
						<path class="st28" d="M174.1,172.2h-24.8c-1.3,0-2.3-1-2.3-2.3l0,0V139l0,0c0,1.3,1,2.3,2.3,2.3h24.8V172.2z"/>
					</g>
					<g>
						<path class="st11" d="M174.1,141.3h-24.8c-1.3,0-2.3-1-2.3-2.3l0,0c0-1.3,1-2.3,2.3-2.3h24.8V141.3z"/>
						<path class="st29" d="M174.1,141.3h-24.8c-1.3,0-2.3-1-2.3-2.3l0,0c0-1.3,1-2.3,2.3-2.3h24.8V141.3z"/>
					</g>
					<path class="st8" d="M147,139c0,1.3,1,2.3,2.3,2.3h24.8v-0.8h-24.8c-0.8,0-1.5-0.7-1.5-1.5c0-0.8,0.7-1.5,1.5-1.5h24.8v-0.8
						h-24.8C148,136.7,147,137.7,147,139z"/>
				</g>
				<g>
					<rect x="152.5" y="148" class="st8" width="16.1" height="10.2"/>
					<rect x="152.5" y="148" class="st29" width="16.1" height="10.2"/>
				</g>
			</g>
			<g>
				<polygon class="st15" points="27.8,329.7 22.2,345.2 30.8,348.6 37.5,334.2 				"/>
				<g>
					<path class="st8" d="M31.7,349.3c-0.1,0-0.1-0.1-0.1-0.2c0-0.1,0.1-0.2,0.2-0.2c0.2,0,4-0.7,5.3,0.3c0.3,0.2,0.4,0.4,0.5,0.7
						c0.1,0.3,0,0.7-0.3,0.9c-0.6,0.3-1.8,0.1-2.9-0.3C33.4,350.3,32.5,349.8,31.7,349.3z M32.5,349.3c1.6,0.8,3.9,1.7,4.5,1.2
						c0.1,0,0.2-0.2,0.1-0.5c0-0.2-0.1-0.4-0.3-0.5c-0.1-0.1-0.3-0.2-0.4-0.2C35.1,349.1,33.8,349.1,32.5,349.3z"/>
					<path class="st8" d="M31.6,349.3c0-0.1-0.1-0.1,0-0.2c0.1-0.1,1.2-2.5,2.7-3c0.4-0.2,0.9-0.1,1.3,0.1c0.6,0.3,0.6,0.6,0.6,0.9
						c-0.2,1.1-3.1,2.2-4.3,2.3c0,0-0.1,0-0.1,0C31.7,349.3,31.6,349.3,31.6,349.3z M35.3,346.5c-0.3-0.1-0.6-0.1-0.8,0
						c-1,0.5-1.7,1.3-2.2,2.3c1.4-0.2,3.4-1.3,3.5-1.9c0-0.1,0-0.2-0.3-0.4L35.3,346.5L35.3,346.5z"/>
					<path class="st11" d="M31.2,347.7l-9.9-3.7c-0.4-0.1-0.8,0-1,0.3l-4.8,7.4c-0.4,0.6-0.2,1.5,0.4,1.9c0.1,0.1,0.2,0.1,0.3,0.1
						c3.6,1.3,6.8,2.2,11.2,3.9c5.2,1.9,3.7,2.1,9.8,4.4c3.7,1.4,5.9-2.5,4.4-3.3c-6.9-3.6-6.8-6-8.6-9.6
						C32.7,348.5,32,348,31.2,347.7z"/>
				</g>
				<polygon class="st16" points="25.1,337.1 34.1,341.5 37.5,334.2 27.8,329.7 				"/>
			</g>
			<g>
				<polygon class="st15" points="79.4,344.6 80.9,361 90.1,360.4 90.1,344.6 				"/>
				<g>
					<path class="st8" d="M91.7,360.1c-0.1,0-0.2-0.1-0.2-0.2c0-0.1,0-0.2,0.1-0.2c0.1-0.1,3.4-2.1,5.1-1.8c0.3,0.1,0.6,0.3,0.7,0.5
						c0.2,0.3,0.2,0.7,0.1,1c-0.4,0.5-1.6,0.8-2.8,0.8C93.6,360.3,92.7,360.3,91.7,360.1z M92.4,359.8c1.8,0.2,4.2,0.1,4.7-0.6
						c0.1-0.1,0.1-0.2-0.1-0.5c-0.1-0.2-0.3-0.3-0.5-0.3c-0.1,0-0.3,0-0.4,0C94.8,358.6,93.5,359.1,92.4,359.8z"/>
					<path class="st8" d="M91.6,360.1c-0.1,0-0.1-0.1-0.1-0.2c0-0.1,0.2-2.7,1.4-3.8c0.3-0.3,0.8-0.5,1.3-0.4c0.6,0,0.8,0.3,0.9,0.6
						c0.2,1.1-2,3.2-3.1,3.8c0,0-0.1,0-0.1,0C91.7,360.1,91.6,360.1,91.6,360.1z M93.9,356.1c-0.3,0-0.6,0.1-0.8,0.3
						c-0.7,0.9-1.1,1.9-1.2,3c1.2-0.7,2.6-2.4,2.5-3.1c0-0.1-0.1-0.2-0.5-0.2L93.9,356.1L93.9,356.1z"/>
					<path class="st11" d="M90.7,358.8l-10.5,0.4c-0.4,0-0.7,0.3-0.8,0.7l-1.6,8.6c-0.1,0.8,0.4,1.5,1.1,1.6c0.1,0,0.2,0,0.3,0
						c3.8-0.2,7.2-0.5,11.9-0.7c5.6-0.2,4.2,0.5,10.7,0.4c3.9-0.1,4.5-4.6,2.8-4.8c-7.7-0.7-8.6-3-11.6-5.6
						C92.3,359,91.5,358.8,90.7,358.8z"/>
				</g>
				<polygon class="st16" points="90.1,344.6 79.4,344.6 80.2,353.2 90.1,352.9 				"/>
			</g>
			<g>
				<path class="st11" d="M71.4,192.1c0,0-16.5,10.9-13.8,42.9l-2.8,36.2c0,0-16.4,11-29.4,61.6c0,0,4.4,3.8,11.5,5.6l39.4-60.2
					l14.6-62.7l1.7-20.9L71.4,192.1z"/>
				<path class="st18" d="M83.6,246.8l-5.9-23l-9.5-4.7c0,0,0,44.9,4.2,64.9l3.9-5.9L83.6,246.8z"/>
				<path class="st15" d="M62.9,153.3c0,0-11.9,14.9-8.7,21.3c3.2,6.4,13.4,7,13.4,7s0.7,2,3.8,2.6l2-9.2c0,0-2-1.3-4.5,0.1l-6.7-4
					l9.2-12.1L62.9,153.3z"/>
				<path class="st30" d="M79.8,143c0,0-9.2,0.3-14.2,4.5c-5,4.2-5.7,6.7-5.7,6.7s3.3,4.8,13,7.4L79.8,143z"/>
				<path class="st20" d="M73,161.6l3.7-10l-4-4.1c0,0-3.7,5.2-4.5,12.5C69.6,160.5,71.2,161.1,73,161.6z"/>
				<path class="st11" d="M75.4,192.1c0,0-13.6,14.9-5.3,44.1l5.8,36.6c0,0-7.4,34.9,1.7,76.4c0,0,7.1,1.1,13.9-0.3l8.5-78.1
					l4.3-74.7L75.4,192.1z"/>
				<g>
					<path class="st15" d="M84.6,142.5c0,0,5-0.5,4.9-9.8c0,0,4.6-2.1,7.6,0.6s-2.7,9.1,1,11.8C98.2,145.1,94.9,147.3,84.6,142.5z"
						/>
					<path class="st11" d="M106.6,119.7c0-0.6,0.4-1.1,0.8-1.1c0.4,0,0.7,0.6,0.6,1.2c0,0.6-0.4,1.1-0.8,1.1
						C106.8,120.9,106.5,120.4,106.6,119.7z"/>
					<path class="st31" d="M107,120.9l3.3,4.3c0,0-1.4,1.2-3.6,0.6L107,120.9z"/>
					<path class="st15" d="M85.2,118.8c0.4,7.8,0.4,11.2,4.3,15.2c6,4.2,15.4,3.9,17.4-3.8c1.8-7,0.9-18.6-6.8-21.9
						c-5.4-2.3-11.7,0.2-14,5.6C85.4,115.5,85.1,117.1,85.2,118.8z"/>
					<path class="st11" d="M105.4,117.9c0.1,0,0.2,0,0.3-0.1c0.7-0.6,1.6-0.9,2.5-0.7c0.2,0,0.4-0.1,0.4-0.3
						c0.1-0.2-0.1-0.4-0.3-0.4c-1.1-0.3-2.3,0.1-3.2,0.9c-0.1,0.1-0.2,0.3-0.1,0.5l0,0C105.3,117.9,105.4,117.9,105.4,117.9z"/>
					<path class="st11" d="M107.3,118.7l1.7-0.3C109,118.5,107.9,119.6,107.3,118.7z"/>
					<path class="st21" d="M93.1,135.9c0.5,0.9,1.8,2.6,4.2,3.8c0.3-1,0.6-2,0.7-3C96.4,136.7,94.7,136.4,93.1,135.9z"/>
					<path class="st11" d="M99.2,123.3c0,0,4.7-5,2.8-10c0,0,5.4,0.6,5-3.5c-0.3-4.1-5.9-2.9-5.9-2.9s3-4.8,0.5-6.2
						c-2.5-1.3-6.9,2.6-6.9,2.6s-11-1.7-14.3,10.8c-3.3,12.5-10.6,5.1-11.1,10.5c-0.6,6,8.1,5.2,8.1,5.2s-1.4,4.2,3.2,5.5
						c4.6,1.3,7-1.8,7-1.8s-0.3,4.2,4.6,3.7c5.7-0.6,4.5-4.3,5-6.3C97.8,129.1,100,127.1,99.2,123.3z"/>
					<path class="st11" d="M94.8,104.4c0,0-2.1-6.3,1.6-6.6C100.1,97.5,94.6,99.8,94.8,104.4z"/>
					<path class="st15" d="M99.1,121.4c1.2,1.1,1.9,2.6,2,4.2c0.1,2.1-1.9,2.7-3.7,1.7c-1.6-0.9-3.5-3.1-2.8-5
						C95.4,120.4,97.7,120.1,99.1,121.4z"/>
				</g>
				<path class="st8" d="M82.2,143.8c0,0-1.7-7.4,9.4-4.2c11.2,3.3,10.2,9.6,10.2,9.6L82.2,143.8z"/>
				<path class="st32" d="M82.2,143.8c0,0-1.7-7.4,9.4-4.2c11.2,3.3,10.2,9.6,10.2,9.6L82.2,143.8z"/>
				<path class="st30" d="M67.2,195.8c0,0,5.2-17.9,4.8-29.5s-4.6-25.4,14.6-23.3c19.2,2.2,23.3,8.9,23.3,19.4
					c0,10.6-5.4,40.5-5.4,40.5S85,208.1,67.2,195.8z"/>
				<path class="st20" d="M109.9,162.4c0-2.5-0.2-4.8-0.9-6.9l-6.4-3l-3.6,5.3c0,0,5.2,11.6,9.9,16.4
					C109.5,169.6,109.9,165.3,109.9,162.4z"/>
				<path class="st15" d="M116.5,157.9c0,0,6.2,6.2,8.8,8.7l19.4-5.3l1.7-5l2.9-0.2l8.8-2.6l3.3,3.2l-3.2,6.9l-10.5,2
					c0,0-17.1,9.4-23.3,8.8s-14.5-8.1-14.5-8.1L116.5,157.9z"/>
				<path class="st30" d="M101,146.6c5.4,0.8,10.9,5.1,19.4,12.6c0,0-2.8,6.4-9,10.4c0,0-5-2.2-10.9-9.7
					C93.3,150.8,97.7,146.1,101,146.6z"/>
			</g>
		</g>
	</g>
</g>
<g id="Table">
	<g>
		<g>
			<path class="st11" d="M312.8,437.3L312.8,437.3c-1.8,0-3.3-0.5-3.2-2.4l3.8-118.7h6.5l-3.8,118.9
				C316,436.9,314.6,437.3,312.8,437.3z"/>
			<path class="st12" d="M312.8,437.3L312.8,437.3c-1.8,0-3.3-0.5-3.2-2.4l3.8-118.7h6.5l-3.8,118.9
				C316,436.9,314.6,437.3,312.8,437.3z"/>
			<g>
				<rect x="295.9" y="316.2" class="st11" width="80.5" height="16.9"/>
				<rect x="295.9" y="316.2" class="st12" width="80.5" height="16.9"/>
			</g>
			<g>
				<rect x="376.4" y="316.2" class="st8" width="20.6" height="16.9"/>
				<rect x="376.4" y="316.2" class="st11" width="20.6" height="16.9"/>
				<rect x="376.4" y="316.2" class="st12" width="20.6" height="16.9"/>
			</g>
			<path class="st11" d="M403.6,437.3L403.6,437.3c1.9,0,3.3-0.6,3.2-2.4l-6.6-118.7h-6.5l6.6,119
				C400.5,436.9,401.9,437.3,403.6,437.3z"/>
			<path class="st12" d="M403.6,437.3L403.6,437.3c1.9,0,3.3-0.6,3.2-2.4l-6.6-118.7h-6.5l6.6,119
				C400.5,436.9,401.9,437.3,403.6,437.3z"/>
			<path class="st11" d="M380.1,437.3L380.1,437.3c1.8,0,3.3-0.5,3.2-2.4l-3.8-118.7h-6.5l3.8,118.9
				C377,436.9,378.4,437.3,380.1,437.3z"/>
			<path class="st12" d="M380.1,437.3L380.1,437.3c1.8,0,3.3-0.5,3.2-2.4l-3.8-118.7h-6.5l3.8,118.9
				C377,436.9,378.4,437.3,380.1,437.3z"/>
			<path class="st11" d="M289.3,437.3L289.3,437.3c-1.9,0-3.3-0.6-3.2-2.4l6.6-118.7h6.5l-6.6,119
				C292.4,436.9,291,437.3,289.3,437.3z"/>
			<path class="st12" d="M289.3,437.3L289.3,437.3c-1.9,0-3.3-0.6-3.2-2.4l6.6-118.7h6.5l-6.6,119
				C292.4,436.9,291,437.3,289.3,437.3z"/>
			<g>
				<path class="st11" d="M423.4,321.5H269.5c-1.7,0-3.1-1.4-3.1-3.1V314c0-1.7,1.4-3.1,3.1-3.1h154c1.7,0,3.1,1.4,3.1,3.1v4.5
					C426.5,320.2,425.2,321.5,423.4,321.5z"/>
				<path class="st29" d="M423.4,321.5H269.5c-1.7,0-3.1-1.4-3.1-3.1V314c0-1.7,1.4-3.1,3.1-3.1h154c1.7,0,3.1,1.4,3.1,3.1v4.5
					C426.5,320.2,425.2,321.5,423.4,321.5z"/>
			</g>
		</g>
		<g>
			<g>
				<g>
					<g>
						<path class="st8" d="M353.4,277.8v8.5c1,0,1,1.6,0,1.6c-3.2,0-6.5,0-9.7,0v-11.8c3.2,0,6.5,0,9.7,0
							C354.4,276.2,354.4,277.8,353.4,277.8z"/>
						<path class="st14" d="M353.4,277.8v8.5c1,0,1,1.6,0,1.6c-3.2,0-6.5,0-9.7,0v-11.8c3.2,0,6.5,0,9.7,0
							C354.4,276.2,354.4,277.8,353.4,277.8z"/>
					</g>
					<rect x="345.8" y="277.8" class="st8" width="7.6" height="8.5"/>
					<rect x="345.8" y="277.8" class="st26" width="7.6" height="8.5"/>
				</g>
				<path class="st8" d="M347.4,277h-41.8c-1.8,0-3.3,2.3-3.3,5.1c0,2.8,1.5,5.1,3.3,5.1h41.8V277z"/>
				<path class="st9" d="M347.4,277h-41.8c-1.8,0-3.3,2.3-3.3,5.1c0,2.8,1.5,5.1,3.3,5.1h41.8V277z"/>
				<g>
					<g>
						<path class="st8" d="M347.4,287.9c-8.6,0-32.7,0.1-41.3,0c-5.9-0.1-6.2-11.4-0.4-11.8c4-0.3,8.2,0,12.2,0c4.7,0,24.9,0,29.5,0
							c1,0,1,1.6,0,1.6c-8.1,0-31.8,0-40,0c-1.9,0-3.2,0-4,2.2c-0.6,1.9-0.4,5.8,2.1,6.3c0.3,0,0.6,0,0.9,0c4.4,0,8.9,0,13.3,0
							c4,0,23.6,0,27.6,0C348.4,286.3,348.4,287.9,347.4,287.9L347.4,287.9z"/>
					</g>
				</g>
				<g class="st33">
					<g>
						<path class="st34" d="M347.4,287.9c-8.6,0-32.7,0.1-41.3,0c-5.9-0.1-6.2-11.4-0.4-11.8c4-0.3,8.2,0,12.2,0
							c4.7,0,24.9,0,29.5,0c1,0,1,1.6,0,1.6c-8.1,0-31.8,0-40,0c-1.9,0-3.2,0-4,2.2c-0.6,1.9-0.4,5.8,2.1,6.3c0.3,0,0.6,0,0.9,0
							c4.4,0,8.9,0,13.3,0c4,0,23.6,0,27.6,0C348.4,286.3,348.4,287.9,347.4,287.9L347.4,287.9z"/>
					</g>
				</g>
			</g>
			<g>
				<g>
					<g>
						<path class="st8" d="M351.9,289.3v7.9c1,0,1,1.5,0,1.5c-3,0-6,0-9,0v-10.9c3,0,6,0,9,0C352.9,287.8,352.9,289.3,351.9,289.3z"
							/>
						<path class="st14" d="M351.9,289.3v7.9c1,0,1,1.5,0,1.5c-3,0-6,0-9,0v-10.9c3,0,6,0,9,0C352.9,287.8,352.9,289.3,351.9,289.3z
							"/>
					</g>
					<rect x="344.9" y="289.3" class="st8" width="7" height="7.9"/>
					<rect x="344.9" y="289.3" class="st26" width="7" height="7.9"/>
				</g>
				<path class="st8" d="M346.4,288.5h-38.7c-1.7,0-3,2.1-3,4.7c0,2.6,1.4,4.7,3,4.7h38.7V288.5z"/>
				<path class="st9" d="M346.4,288.5h-38.7c-1.7,0-3,2.1-3,4.7c0,2.6,1.4,4.7,3,4.7h38.7V288.5z"/>
				<g>
					<g>
						<path class="st8" d="M346.4,298.7c-8,0-30.3,0.1-38.3,0c-5.4-0.1-5.7-10.5-0.4-10.9c3.7-0.3,7.6,0,11.3,0c4.3,0,23,0,27.4,0
							c1,0,1,1.5,0,1.5c-7.5,0-29.5,0-37,0c-1.8,0-3,0-3.7,2.1c-0.6,1.8-0.4,5.4,2,5.8c0.3,0,0.6,0,0.8,0c4.1,0,8.2,0,12.3,0
							c3.7,0,21.8,0,25.5,0C347.3,297.2,347.3,298.7,346.4,298.7L346.4,298.7z"/>
					</g>
				</g>
			</g>
			<g>
				<g>
					<g>
						<path class="st8" d="M356.4,300.3v9.4c1.2,0,1.2,1.8,0,1.8c-3.6,0-7.2,0-10.7,0v-13c3.6,0,7.2,0,10.7,0
							C357.6,298.5,357.6,300.3,356.4,300.3z"/>
						<path class="st14" d="M356.4,300.3v9.4c1.2,0,1.2,1.8,0,1.8c-3.6,0-7.2,0-10.7,0v-13c3.6,0,7.2,0,10.7,0
							C357.6,298.5,357.6,300.3,356.4,300.3z"/>
					</g>
					<rect x="348.1" y="300.3" class="st8" width="8.3" height="9.4"/>
					<rect x="348.1" y="300.3" class="st26" width="8.3" height="9.4"/>
				</g>
				<path class="st8" d="M349.8,299.4h-46c-2,0-3.6,2.5-3.6,5.6c0,3.1,1.6,5.6,3.6,5.6h46V299.4z"/>
				<path class="st9" d="M349.8,299.4h-46c-2,0-3.6,2.5-3.6,5.6c0,3.1,1.6,5.6,3.6,5.6h46V299.4z"/>
				<g>
					<g>
						<path class="st8" d="M349.8,311.5c-9.5,0-36.1,0.2-45.5,0c-6.5-0.1-6.8-12.5-0.5-13c4.4-0.3,9,0,13.4,0c5.1,0,27.4,0,32.6,0
							c1.2,0,1.2,1.8,0,1.8c-9,0-35.1,0-44,0c-2.1,0-3.6,0-4.4,2.5c-0.7,2.1-0.5,6.4,2.4,6.9c0.3,0,0.7,0,1,0c4.9,0,9.8,0,14.7,0
							c4.4,0,26,0,30.4,0C351,309.7,351,311.5,349.8,311.5L349.8,311.5z"/>
					</g>
				</g>
				<g class="st33">
					<g>
						<path d="M349.8,311.5c-9.5,0-36.1,0.2-45.5,0c-6.5-0.1-6.8-12.5-0.5-13c4.4-0.3,9,0,13.4,0c5.1,0,27.4,0,32.6,0
							c1.2,0,1.2,1.8,0,1.8c-9,0-35.1,0-44,0c-2.1,0-3.6,0-4.4,2.5c-0.7,2.1-0.5,6.4,2.4,6.9c0.3,0,0.7,0,1,0c4.9,0,9.8,0,14.7,0
							c4.4,0,26,0,30.4,0C351,309.7,351,311.5,349.8,311.5L349.8,311.5z"/>
					</g>
				</g>
			</g>
		</g>
	</g>
</g>
</svg>
