<!DOCTYPE svg PUBLIC "-//W3C//DTD SVG 20010904//EN" "http://www.w3.org/TR/2001/REC-SVG-20010904/DTD/svg10.dtd">
<svg version="1.0" xmlns="http://www.w3.org/2000/svg" width="1200px" height="372px" viewBox="0 0 12000 3720" preserveAspectRatio="xMidYMid meet">
<g id="layer101" fill="#242223" stroke="none">
<path d="M4032 2803 c-71 -76 -153 -166 -183 -200 -30 -34 -58 -62 -62 -62 -13 -1 4 353 17 361 6 4 23 8 38 8 15 0 30 5 33 10 4 6 -30 10 -95 10 -65 0 -99 -4 -95 -10 3 -5 16 -10 28 -10 48 0 48 -4 45 -219 -3 -216 -4 -220 -55 -221 -14 0 -23 -6 -23 -15 0 -23 104 -21 128 3 29 31 298 325 325 357 l26 30 -1 -80 c0 -44 -3 -127 -7 -185 l-6 -105 -38 -5 c-68 -9 -45 -25 41 -28 52 -2 82 1 82 8 0 5 -9 10 -19 10 -11 0 -23 6 -28 13 -4 6 -6 114 -4 240 2 148 -1 227 -7 227 -6 0 -68 -62 -140 -137z"/>
<path d="M5866 2924 c-96 -35 -146 -105 -154 -214 -3 -53 0 -76 17 -116 28 -64 93 -129 150 -149 51 -18 161 -19 211 -2 32 11 35 16 38 55 4 50 -7 54 -32 11 -39 -67 -154 -78 -224 -22 -50 41 -81 118 -82 204 0 145 65 229 177 229 60 0 112 -25 138 -67 27 -43 39 -41 31 5 -12 63 -16 69 -48 76 -54 11 -182 5 -222 -10z"/>
<path d="M6368 2926 c-56 -20 -85 -42 -118 -88 -57 -79 -65 -181 -19 -272 43 -86 130 -136 239 -136 156 0 259 100 260 253 0 107 -44 182 -135 230 -51 26 -173 33 -227 13z m192 -28 c57 -29 90 -91 97 -182 17 -201 -122 -322 -277 -243 -86 43 -127 181 -92 304 36 122 160 177 272 121z"/>
<path d="M6836 2930 c-16 -5 -32 -13 -35 -19 -9 -14 0 -121 10 -121 5 0 9 5 9 11 0 27 36 83 64 100 71 43 166 5 166 -68 0 -52 -14 -69 -98 -118 -138 -81 -171 -130 -135 -202 10 -20 30 -46 45 -56 37 -27 122 -34 171 -14 35 15 37 18 37 61 0 55 -11 59 -29 11 -24 -67 -111 -87 -162 -36 -54 55 -35 89 93 159 128 71 161 132 117 219 -32 61 -74 83 -159 82 -36 0 -78 -5 -94 -9z"/>
<path d="M7602 2922 c-94 -38 -156 -131 -155 -237 0 -70 18 -117 63 -169 56 -63 101 -81 205 -81 78 0 96 3 135 25 190 107 165 393 -41 465 -55 20 -154 18 -207 -3z m191 -16 c43 -18 84 -67 98 -119 16 -60 7 -194 -15 -240 -47 -96 -195 -128 -276 -60 -66 55 -97 180 -70 278 17 60 63 123 103 140 41 18 119 19 160 1z"/>
<path d="M8455 2904 c-8 -20 -15 -38 -15 -40 0 -9 -163 -370 -172 -381 -5 -6 -22 -13 -36 -15 -15 -2 -26 -7 -25 -13 4 -14 223 -19 223 -5 0 5 -11 10 -24 10 -35 0 -56 10 -56 26 0 8 24 69 54 137 29 67 61 144 71 170 10 26 21 44 25 40 11 -13 65 -149 100 -252 30 -90 31 -96 14 -108 -10 -7 -28 -13 -41 -13 -13 0 -23 -4 -23 -10 0 -6 78 -10 215 -10 137 0 215 4 215 10 0 6 -13 10 -28 10 -50 0 -52 8 -52 227 0 190 1 203 19 213 11 5 29 10 40 10 12 0 21 5 21 10 0 6 -45 10 -115 10 -114 0 -151 -12 -75 -24 38 -6 40 -8 41 -44 2 -46 -2 -386 -5 -389 -10 -12 -89 -18 -117 -9 -32 10 -37 19 -87 141 -30 72 -71 175 -92 230 -21 55 -43 101 -49 103 -6 2 -17 -13 -26 -34z"/>
<path d="M10592 2927 c-46 -14 -121 -84 -143 -132 -21 -46 -24 -129 -7 -187 15 -50 79 -123 132 -150 57 -29 192 -36 269 -14 l57 17 0 49 c0 28 -2 50 -4 50 -2 0 -15 -17 -29 -38 -41 -63 -111 -85 -208 -65 -45 9 -121 86 -137 139 -34 116 2 231 93 292 47 32 55 34 117 30 84 -5 100 -18 106 -91 6 -71 -8 -97 -53 -97 -18 0 -37 -4 -40 -10 -4 -6 37 -10 117 -9 68 1 107 4 88 8 l-35 6 -5 76 c-3 43 -12 84 -19 93 -33 39 -216 60 -299 33z"/>
<path d="M11572 2925 c-32 -14 -33 -16 -30 -70 3 -60 18 -73 31 -26 11 46 70 91 118 91 22 0 49 -5 60 -10 22 -12 49 -60 49 -89 0 -32 -43 -74 -120 -116 -93 -51 -130 -92 -130 -146 0 -77 62 -129 154 -129 88 0 119 27 107 95 l-7 40 -13 -37 c-16 -49 -54 -78 -101 -78 -52 0 -90 32 -90 75 0 43 16 58 125 119 104 58 128 89 122 159 -8 91 -67 137 -177 137 -36 -1 -80 -7 -98 -15z"/>
<path d="M2593 2924 c3 -4 21 -9 38 -13 45 -9 50 -34 47 -252 l-3 -182 -32 -11 c-67 -23 -42 -28 137 -24 l185 3 55 31 c139 78 168 261 58 380 -59 64 -102 74 -316 74 -97 0 -173 -3 -169 -6z m379 -50 c61 -42 90 -100 91 -178 1 -101 -46 -175 -135 -213 -44 -19 -142 -27 -168 -13 l-23 12 6 197 c6 188 7 197 29 214 18 15 36 18 90 15 55 -3 75 -9 110 -34z"/>
<path d="M3140 2920 c0 -5 13 -10 30 -10 45 0 40 9 180 -373 32 -88 47 -117 58 -115 17 3 33 41 124 297 59 165 64 174 95 187 18 8 33 16 33 19 0 3 -45 5 -100 5 -60 0 -100 -4 -100 -10 0 -5 13 -10 29 -10 17 0 32 -4 35 -9 3 -4 -8 -49 -25 -100 l-31 -91 -78 0 -79 0 -30 92 c-16 51 -27 96 -25 100 3 5 21 8 40 8 19 0 34 5 34 10 0 6 -38 10 -95 10 -57 0 -95 -4 -95 -10z m296 -292 c-50 -132 -46 -125 -57 -105 -9 16 -59 155 -59 164 0 2 31 3 70 3 l70 0 -24 -62z"/>
<path d="M4276 2921 c-3 -5 13 -11 35 -14 22 -3 42 -7 44 -9 7 -6 10 -120 7 -275 l-2 -153 -40 -6 c-81 -13 -48 -24 69 -24 74 0 121 4 121 10 0 6 -11 10 -24 10 -57 0 -56 -5 -56 219 0 223 2 231 52 231 15 0 28 5 28 10 0 12 -227 14 -234 1z"/>
<path d="M4550 2921 c0 -6 17 -11 38 -13 l37 -3 3 -200 c1 -110 0 -210 -3 -222 -4 -17 -13 -23 -35 -23 -16 0 -32 -4 -35 -10 -4 -7 67 -10 204 -10 l211 0 0 55 c0 30 -3 55 -8 55 -4 0 -16 -19 -27 -42 l-20 -43 -92 -3 c-132 -4 -134 -2 -131 111 l3 92 95 0 95 0 10 -32 c19 -58 25 -47 25 47 0 94 -6 105 -25 47 l-10 -32 -97 -3 -98 -3 0 91 c0 130 0 130 118 130 114 0 138 -10 170 -68 23 -42 48 -58 38 -24 -3 9 -8 38 -12 65 l-6 47 -224 0 c-133 0 -224 -4 -224 -9z"/>
<path d="M5044 2921 c4 -5 24 -12 46 -16 l40 -7 0 -214 0 -214 -40 -6 c-77 -13 -39 -24 80 -24 68 0 120 4 120 9 0 6 -19 11 -42 13 l-43 3 -3 223 -2 222 82 0 c96 0 131 -16 167 -74 13 -20 25 -36 28 -36 3 0 2 21 -1 48 -13 90 8 82 -227 82 -124 0 -208 -4 -205 -9z"/>
<path d="M7150 2920 c0 -5 10 -10 23 -10 12 0 32 -3 45 -6 22 -6 22 -7 22 -220 l0 -214 -40 -6 c-81 -13 -48 -24 69 -24 74 0 121 4 121 10 0 6 -11 10 -24 10 -57 0 -56 -5 -56 219 0 223 2 231 52 231 15 0 28 5 28 10 0 6 -47 10 -120 10 -73 0 -120 -4 -120 -10z"/>
<path d="M9010 2921 c0 -5 18 -12 39 -16 39 -6 40 -7 46 -58 3 -29 5 -124 3 -212 l-3 -160 -37 -9 c-68 -17 -40 -26 77 -26 70 0 115 4 115 10 0 6 -18 10 -39 10 -26 0 -41 5 -45 16 -3 9 -6 110 -6 226 l0 210 96 -4 c95 -3 96 -3 127 -39 18 -19 37 -44 43 -55 19 -31 22 -13 11 54 l-11 62 -208 0 c-119 0 -208 -4 -208 -9z"/>
<path d="M9450 2921 c0 -5 18 -11 39 -15 39 -6 40 -7 46 -59 3 -28 5 -124 3 -212 l-3 -160 -37 -9 c-69 -17 -40 -26 83 -26 77 0 118 4 114 10 -3 6 -24 10 -46 10 l-39 0 0 225 0 225 86 0 87 0 42 -42 c23 -24 44 -50 47 -58 12 -34 15 -1 5 58 l-10 62 -208 0 c-115 0 -209 -4 -209 -9z"/>
<path d="M9906 2921 c5 -5 23 -11 39 -13 l30 -3 0 -220 0 -220 -30 -3 c-16 -2 -34 -8 -39 -13 -6 -5 72 -9 202 -9 l212 0 0 58 c-1 61 -4 61 -42 -7 l-17 -31 -90 0 c-49 0 -96 3 -105 6 -13 5 -16 24 -16 105 l0 99 84 0 c99 0 116 -5 116 -34 0 -19 18 -58 21 -46 1 3 3 44 4 93 2 86 -6 113 -20 60 -12 -49 -21 -53 -117 -53 l-89 0 3 108 3 107 90 3 c125 4 160 -7 187 -64 12 -24 26 -44 30 -44 8 0 2 87 -7 118 -3 9 -59 12 -232 12 -139 0 -223 -4 -217 -9z"/>
<path d="M10985 2920 c3 -5 19 -10 34 -10 16 0 34 -7 41 -14 6 -8 49 -118 95 -243 66 -183 86 -228 101 -228 17 0 62 112 167 414 15 43 25 55 53 67 19 8 34 16 34 19 0 3 -47 5 -105 5 -63 0 -105 -4 -105 -10 0 -5 15 -10 34 -10 19 0 37 -4 40 -8 2 -4 -9 -49 -27 -100 l-31 -92 -77 0 -76 0 -32 90 c-17 49 -31 94 -31 100 0 5 15 10 34 10 19 0 38 5 41 10 4 6 -30 10 -95 10 -65 0 -99 -4 -95 -10z m310 -257 c-3 -15 -18 -58 -33 -95 l-27 -69 -32 83 c-18 46 -32 89 -33 96 0 8 20 12 66 12 l66 0 -7 -27z"/>
<path d="M7226 2378 c27 -49 78 -99 97 -96 37 6 29 26 -29 67 -58 42 -81 51 -68 29z"/>
<path d="M2180 1890 c0 -20 7 -20 4900 -20 4893 0 4900 0 4900 20 0 20 -7 20 -4900 20 -4893 0 -4900 0 -4900 -20z"/>
<path d="M10394 1590 c-80 -11 -207 -62 -266 -105 -58 -43 -110 -112 -140 -185 -18 -45 -22 -75 -23 -171 0 -114 0 -116 39 -193 70 -142 200 -246 352 -282 89 -20 313 -15 391 10 75 24 83 35 83 117 0 84 -15 91 -55 24 -94 -161 -348 -181 -512 -41 -90 78 -143 214 -143 370 1 266 124 414 352 424 124 6 207 -21 280 -87 29 -27 60 -61 67 -75 8 -14 21 -26 28 -26 17 0 12 31 -21 130 l-21 65 -55 12 c-72 17 -279 24 -356 13z"/>
<path d="M7099 1580 c-280 -45 -463 -271 -428 -529 17 -117 109 -255 214 -316 91 -54 181 -77 315 -82 146 -6 213 7 326 62 86 42 174 131 213 215 24 50 26 66 26 185 0 120 -2 134 -27 188 -30 63 -106 145 -183 195 -106 70 -307 106 -456 82z m269 -48 c69 -22 141 -69 176 -115 33 -44 73 -167 81 -253 9 -86 -14 -213 -50 -284 -32 -64 -122 -143 -193 -171 -83 -33 -242 -33 -326 0 -172 68 -274 287 -231 495 34 163 120 275 252 326 66 26 210 27 291 2z"/>
<path d="M8094 1578 c-7 -10 6 -16 82 -33 38 -8 76 -20 84 -25 12 -8 16 -47 18 -232 2 -123 1 -296 -3 -385 l-7 -163 -108 0 c-60 0 -120 4 -133 9 -26 10 -82 64 -124 119 -24 31 -70 46 -61 20 3 -7 20 -68 38 -135 36 -135 45 -144 89 -93 l26 30 375 1 c264 1 375 -2 378 -10 9 -27 40 -54 55 -48 14 5 17 22 17 105 0 55 -3 114 -6 131 -9 44 -34 36 -49 -14 -30 -103 -55 -115 -228 -115 l-124 0 5 383 c2 210 8 387 13 393 5 6 45 19 89 28 47 11 80 23 80 30 0 9 -60 12 -251 12 -138 0 -253 -4 -255 -8z"/>
<path d="M2622 1572 c-40 -6 -18 -26 44 -40 32 -7 66 -20 74 -28 13 -13 15 -69 12 -401 -1 -213 -4 -388 -7 -391 -2 -2 -39 -7 -82 -11 -63 -5 -78 -9 -81 -23 -3 -14 4 -18 30 -18 18 -1 117 -5 220 -9 345 -17 466 9 536 114 30 44 33 56 30 101 -5 62 -26 92 -100 140 l-57 37 56 23 c115 47 175 122 176 222 1 129 -117 242 -284 272 -52 9 -519 19 -567 12z m544 -57 c191 -57 223 -298 50 -387 -49 -25 -194 -43 -268 -34 l-58 7 1 137 c1 149 10 237 26 253 37 37 164 49 249 24z m-112 -465 c85 -13 137 -41 173 -94 36 -53 40 -148 7 -193 -44 -61 -179 -97 -298 -79 l-46 7 0 179 0 179 28 4 c48 7 66 7 136 -3z"/>
<path d="M4172 1572 c-41 -6 -17 -26 49 -40 35 -7 70 -21 77 -30 17 -22 18 -777 0 -788 -6 -4 -44 -9 -85 -12 -71 -5 -95 -14 -77 -32 14 -14 437 -29 539 -20 56 5 111 16 143 30 93 40 151 131 135 211 -8 40 -72 107 -128 133 l-40 19 57 19 c33 11 76 36 104 61 175 154 61 393 -209 436 -58 10 -515 20 -565 13z m547 -58 c75 -22 137 -81 157 -150 14 -49 14 -59 -1 -111 -29 -99 -99 -144 -250 -159 -35 -4 -88 -3 -119 0 l-56 7 0 178 c0 165 2 180 21 205 11 14 35 30 52 35 50 15 139 12 196 -5z m-54 -475 c60 -16 104 -55 132 -116 19 -42 23 -63 18 -91 -15 -80 -50 -114 -139 -138 -54 -15 -153 -18 -205 -8 l-31 7 0 126 c0 69 3 149 6 178 6 46 10 52 33 56 35 7 136 -2 186 -14z"/>
<path d="M5113 1565 c2 -5 39 -16 83 -23 43 -7 84 -18 89 -23 6 -6 11 -158 13 -404 3 -371 2 -394 -15 -399 -16 -4 -131 -26 -140 -26 -2 0 -3 -7 -3 -15 0 -13 34 -15 245 -15 202 0 243 2 239 14 -3 9 -31 15 -84 19 -43 3 -83 8 -89 12 -8 4 -11 139 -11 422 l0 415 188 -4 187 -3 48 -33 c49 -34 121 -117 132 -152 6 -19 35 -29 35 -12 0 4 -9 48 -20 98 -11 49 -20 100 -20 114 l0 26 -440 0 c-299 0 -439 -4 -437 -11z"/>
<path d="M8876 1571 c-12 -19 0 -24 75 -32 39 -5 74 -11 78 -14 3 -4 5 -188 3 -408 -3 -454 2 -427 -83 -427 -54 0 -81 -8 -73 -21 5 -9 856 -13 865 -5 7 7 -2 206 -10 206 -4 0 -20 -27 -36 -59 -15 -33 -38 -72 -50 -88 l-23 -28 -218 2 c-162 2 -220 6 -226 15 -4 7 -8 93 -8 191 l0 177 53 1 c102 3 322 -2 339 -7 10 -3 21 -17 24 -32 20 -87 26 -103 40 -100 12 2 15 33 17 171 2 113 -1 166 -8 164 -5 -2 -23 -35 -38 -72 -15 -38 -33 -73 -40 -77 -7 -4 -96 -8 -199 -8 l-188 0 0 194 c0 164 3 197 16 210 13 13 46 16 204 16 104 0 212 -5 241 -11 63 -14 106 -51 152 -134 18 -33 41 -61 51 -63 16 -3 18 0 12 19 -7 22 -21 108 -32 187 l-5 32 -163 0 c-89 0 -298 3 -463 7 -232 5 -302 3 -307 -6z"/>
<path d="M11697 1573 c-104 -3 -137 -7 -134 -16 2 -7 33 -15 76 -19 40 -3 75 -9 79 -12 7 -7 -40 -147 -94 -281 l-32 -80 -165 -3 -165 -2 -20 52 c-10 29 -38 106 -62 170 -23 64 -40 123 -37 131 4 11 29 17 81 22 55 5 76 11 76 21 0 11 -36 14 -200 14 -162 0 -200 -3 -200 -14 0 -9 19 -15 65 -18 36 -3 72 -12 81 -19 27 -22 80 -138 210 -461 70 -172 138 -342 153 -378 20 -49 32 -66 48 -68 36 -5 30 -18 242 513 61 154 124 304 139 334 26 53 29 55 87 70 41 11 61 21 63 34 3 15 -5 17 -75 15 -43 -1 -140 -4 -216 -5z m-132 -454 c5 -6 -127 -335 -140 -347 -3 -3 -6 -3 -8 -1 -15 18 -137 322 -137 340 0 4 19 10 43 12 57 6 235 3 242 -4z"/>
<path d="M3582 1558 c3 -8 33 -16 72 -21 96 -10 102 -15 110 -89 9 -83 -2 -720 -12 -730 -4 -4 -30 -10 -57 -13 -99 -12 -115 -16 -115 -30 0 -13 37 -15 246 -15 190 0 245 3 242 12 -3 7 -38 18 -78 25 -40 7 -77 18 -82 25 -4 7 -8 185 -8 395 0 430 -4 407 78 418 26 3 53 7 61 8 8 1 16 8 19 15 3 9 -49 12 -238 12 -189 0 -241 -3 -238 -12z"/>
<path d="M6062 1558 c3 -8 33 -16 72 -21 96 -10 102 -15 110 -89 9 -81 -2 -720 -12 -730 -4 -4 -30 -10 -57 -13 -99 -12 -115 -16 -115 -30 0 -13 37 -15 246 -15 192 0 245 3 242 13 -3 6 -37 17 -77 23 -41 6 -77 17 -82 25 -5 8 -9 186 -9 396 0 430 -4 407 78 418 26 3 53 7 61 8 8 1 16 8 19 15 3 9 -49 12 -238 12 -189 0 -241 -3 -238 -12z"/>
</g>
<g id="layer102" fill="#6a1d3f" stroke="none">
<path d="M0 1860 l0 -1860 890 0 890 0 0 80 0 80 -810 0 -810 0 0 1700 0 1700 810 0 810 0 0 80 0 80 -890 0 -890 0 0 -1860z"/>
<path d="M310 2675 l0 -735 735 0 735 0 0 735 0 735 -735 0 -735 0 0 -735z m450 472 c0 -8 -18 -19 -41 -26 -34 -10 -44 -20 -60 -55 -18 -41 -18 -57 -8 -317 6 -151 13 -276 15 -278 10 -10 29 27 174 334 83 176 155 324 159 328 4 4 12 2 18 -5 5 -7 81 -161 169 -342 145 -300 173 -350 191 -333 10 11 22 608 12 634 -5 13 -24 30 -44 39 -64 26 -40 34 110 34 115 0 145 -3 145 -13 0 -8 -18 -19 -40 -26 -22 -6 -45 -21 -51 -33 -11 -21 -28 -403 -29 -664 0 -127 2 -144 20 -167 11 -14 34 -28 50 -32 17 -4 30 -12 30 -20 0 -9 -20 -13 -76 -13 l-77 0 -191 389 c-105 214 -196 389 -202 389 -9 0 -307 -629 -352 -741 l-14 -37 -89 0 c-49 0 -92 4 -94 8 -3 5 12 17 32 27 27 13 45 32 63 68 22 44 25 65 29 184 4 158 -25 552 -44 598 -9 21 -26 37 -49 47 -67 28 -43 36 104 36 110 0 140 -3 140 -13z"/>
<path d="M310 1045 l0 -735 735 0 735 0 0 735 0 735 -735 0 -735 0 0 -735z m968 510 c70 -17 164 -58 182 -79 15 -20 49 -165 39 -171 -4 -3 -24 20 -45 50 -111 168 -380 233 -568 138 -99 -50 -185 -168 -222 -303 -22 -80 -24 -253 -5 -330 31 -125 105 -223 207 -273 105 -52 246 -58 362 -15 70 26 170 123 222 215 19 34 38 63 43 63 9 0 10 -165 1 -209 -6 -28 -10 -32 -31 -26 -16 4 -43 -5 -86 -29 -102 -57 -186 -78 -312 -78 -130 -1 -207 20 -301 80 -199 129 -291 396 -221 638 51 175 182 299 361 340 76 17 283 11 374 -11z"/>
</g>


</svg>